<?xml version="1.0" encoding="utf-8"?>
<!-- Generator: Adobe Illustrator 21.0.0, SVG Export Plug-In . SVG Version: 6.00 Build 0)  -->
<svg version="1.1" id="图层_1" xmlns="http://www.w3.org/2000/svg" xmlns:xlink="http://www.w3.org/1999/xlink" x="0px" y="0px"
	 viewBox="0 0 695.9 700.5" style="enable-background:new 0 0 695.9 700.5;" xml:space="preserve">
<style type="text/css">
	.st0{fill:none;}
	.st1{fill:url(#SVGID_1_);}
	.st2{fill:url(#SVGID_2_);}
	.st3{fill:url(#SVGID_3_);}
	.st4{fill:url(#SVGID_4_);}
	.st5{fill:url(#SVGID_5_);}
	.st6{fill:url(#SVGID_6_);}
</style>
<rect x="20.9" y="-28.6" class="st0" width="625" height="716.9"/>
<rect x="50.8" y="9.6" class="st0" width="151.1" height="151.3"/>
<linearGradient id="SVGID_1_" gradientUnits="userSpaceOnUse" x1="258.2964" y1="743.2806" x2="63.1988" y2="464.6523">
	<stop  offset="0" style="stop-color:#EC766A"/>
	<stop  offset="1" style="stop-color:#F19D96"/>
</linearGradient>
<path class="st1" d="M236.6,571.5c-91.1-13-165.4-44.6-203.7-85.6v78C32.9,624,154.7,691,329.4,691h3.5
	C289.2,662.9,255,621,236.6,571.5L236.6,571.5z M236.6,571.5"/>
<linearGradient id="SVGID_2_" gradientUnits="userSpaceOnUse" x1="580.502" y1="654.3455" x2="346.6089" y2="320.3115">
	<stop  offset="0" style="stop-color:#EC766A"/>
	<stop  offset="1" style="stop-color:#F19D96"/>
</linearGradient>
<path class="st2" d="M463.6,283.4c-112.4,0-204,91.5-204,203.9c0,112.4,91.5,204,204,204c112.4,0,204-91.5,204-203.9
	C667.5,374.8,576,283.3,463.6,283.4L463.6,283.4z M337.9,487.3c0-69.3,56.3-125.6,125.6-125.6c20,0,38.6,5.1,55.4,13.5L351.4,542.8
	C343,526,337.9,507.3,337.9,487.3L337.9,487.3z M463.5,613c-20.7,0-39.9-5.5-57.1-14.4l168.4-168.4c8.9,17.2,14.4,36.5,14.4,57.1
	C589.2,556.6,532.8,612.9,463.5,613L463.5,613z M463.5,613"/>
<linearGradient id="SVGID_3_" gradientUnits="userSpaceOnUse" x1="213.2107" y1="551.6917" x2="56.5939" y2="328.0197">
	<stop  offset="0" style="stop-color:#EC766A"/>
	<stop  offset="1" style="stop-color:#F19D96"/>
</linearGradient>
<path class="st3" d="M221.5,487.3c0-20.1,2.5-39.7,7.1-58.3c-87.4-13.6-158.5-44.6-195.7-84.4v78c0,47.6,76.3,99.5,194.6,119.1
	C223.6,524.2,221.5,506,221.5,487.3L221.5,487.3z M221.5,487.3"/>
<linearGradient id="SVGID_4_" gradientUnits="userSpaceOnUse" x1="629.7278" y1="296.954" x2="582.0834" y2="228.9106">
	<stop  offset="0" style="stop-color:#EC766A"/>
	<stop  offset="1" style="stop-color:#F19D96"/>
</linearGradient>
<path class="st4" d="M620.6,303.3c3.5-7.4,5.3-14.8,5.3-22.1v-78c-19.7,21.1-49,39.7-85.2,54.7C570.3,267.8,597.4,283.4,620.6,303.3
	L620.6,303.3z M620.6,303.3"/>
<linearGradient id="SVGID_5_" gradientUnits="userSpaceOnUse" x1="244.8261" y1="396.4419" x2="84.3726" y2="167.2905">
	<stop  offset="0" style="stop-color:#EC766A"/>
	<stop  offset="1" style="stop-color:#F19D96"/>
</linearGradient>
<path class="st5" d="M316.6,295.2C190,292.8,82,255.7,33,203.3v78c0,48.8,80.4,102.2,204.1,120.6C253.3,359.3,281,322.4,316.6,295.2
	L316.6,295.2z M316.6,295.2"/>
<linearGradient id="SVGID_6_" gradientUnits="userSpaceOnUse" x1="442.6686" y1="301.4651" x2="216.2934" y2="-21.8322">
	<stop  offset="0" style="stop-color:#EC766A"/>
	<stop  offset="1" style="stop-color:#F19D96"/>
</linearGradient>
<path class="st6" d="M365.5,266.1c30-13.3,63.2-20.8,98.1-20.8c8.1,0,16,0.4,23.9,1.2c85.8-24.5,138.5-67,138.5-106.6
	c0-60.2-121.8-127.2-296.5-127.2C154.8,12.6,33,79.6,33,139.8C33,200,154.8,267,329.5,267C341.7,267,353.7,266.7,365.5,266.1
	L365.5,266.1z M365.5,266.1"/>
</svg>
