<?xml version="1.0" encoding="utf-8"?>
<!-- Generator: Adobe Illustrator 21.0.0, SVG Export Plug-In . SVG Version: 6.00 Build 0)  -->
<svg version="1.1" id="图层_1" xmlns="http://www.w3.org/2000/svg" xmlns:xlink="http://www.w3.org/1999/xlink" x="0px" y="0px"
	 viewBox="0 0 695.9 700.5" style="enable-background:new 0 0 695.9 700.5;" xml:space="preserve">
<style type="text/css">
	.st0{fill:none;}
	.st1{fill:url(#SVGID_1_);}
	.st2{fill:url(#SVGID_2_);}
</style>
<rect x="20.9" y="-28.6" class="st0" width="625" height="716.9"/>
<rect x="50.8" y="9.6" class="st0" width="151.1" height="151.3"/>
<g>
	<linearGradient id="SVGID_1_" gradientUnits="userSpaceOnUse" x1="508.0139" y1="644.853" x2="183.7625" y2="181.7739">
		<stop  offset="0" style="stop-color:#EC766A"/>
		<stop  offset="1" style="stop-color:#F19D96"/>
	</linearGradient>
	<path class="st1" d="M470.5,357c91.5,0,166.7-23.7,175.3-54.1c0.5-1.9,0.9-3.8,0.9-5.8V192.5c0,24.2-39,41.2-95.9,51.5
		c-24.1,4.4-51.4,6.9-80.3,6.9c-29,0-56.2-2.5-80.3-6.9c-56.9-10.3-95.9-27.3-95.9-51.5v41.1c-21.2-3.2-44.5-5-69-5
		c-97.3,0-176.2,27.9-176.2,62.3v104.7c0,2,0.3,3.9,0.9,5.8c8.6,30.3,83.8,54.1,175.3,54.1c24.5,0,47.8-1.7,69-4.8
		c3.4-0.5,6.7-1,9.9-1.6c5.1-0.9,10.1-1.8,14.9-2.9c44.9-9.6,76.1-26,81.4-44.9c0.5-1.9,0.9-3.8,0.9-5.8v14
		c0,19.5-25.4,34.3-65.1,44.8c-5.8,1.5-11.9,3-18.3,4.3c-4,0.8-8.1,1.6-12.4,2.4c-3.7,0.7-7.5,1.3-11.3,1.9c-21.2,3.2-44.5,5-69,5
		c-29,0-56.2-2.5-80.3-6.9c-56.9-10.3-95.9-27.3-95.9-51.5v104.7c0,2,0.3,3.9,0.9,5.8c8.6,30.3,83.8,54.1,175.3,54.1
		c34.7,0,67-3.4,94.3-9.3c44.7-9.6,75.7-25.9,81-44.8c0.5-1.9,0.9-3.8,0.9-5.8v14c0,19.4-25.2,34.2-64.6,44.6
		c-9.6,2.5-20.1,4.8-31.2,6.8c-24.1,4.4-51.4,6.9-80.3,6.9c-29,0-56.2-2.5-80.3-6.9c-56.9-10.3-95.9-27.3-95.9-51.5V633
		c0,2,0.3,3.9,0.9,5.8c8.6,30.3,83.8,54.1,175.3,54.1c91.5,0,166.7-23.7,175.3-54.1c0.5-1.9,0.9-3.8,0.9-5.8v-44
		c21.2,3.1,44.5,4.8,69,4.8c91.5,0,166.7-23.7,175.3-54.1c0.5-1.9,0.9-3.8,0.9-5.8V429.3c0,24.2-39,41.2-95.9,51.5
		c-24.1,4.4-51.4,6.9-80.3,6.9c-24.5,0-47.8-1.8-69-5v-12c21.2,3.1,44.5,4.8,69,4.8c91.5,0,166.7-23.7,175.3-54.1
		c0.5-1.9,0.9-3.8,0.9-5.8V310.9c0,24.2-39,41.2-95.9,51.5c-24.1,4.4-51.4,6.9-80.3,6.9c-24.5,0-47.8-1.8-69-5v-12
		C422.7,355.3,446,357,470.5,357z M370.1,299.1c-7.4,5.4-18.4,10.6-31.9,15c-8.7,2.9-18.3,5.4-28.4,7.5c-3.7,0.8-7.5,1.5-11.4,2.2
		c-1.3,0.2-2.7,0.5-4,0.7c-21.3,3.4-44.8,5.2-69,5.2c-42.4,0-82.4-5.5-112.9-15.6c-13.4-4.4-24.5-9.6-31.9-15
		c-5.7-4.2-7.7-7.3-8-8.3c0.3-1,2.3-4.1,8-8.3c7.4-5.4,18.5-10.6,31.9-15c30.4-10,70.5-15.6,112.9-15.6c24.2,0,47.7,1.8,69,5.2
		c16,2.6,30.8,6,43.8,10.3c13.4,4.4,24.4,9.6,31.9,15c5.7,4.2,7.7,7.3,8,8.3C377.7,291.8,375.8,295,370.1,299.1z"/>
	<linearGradient id="SVGID_2_" gradientUnits="userSpaceOnUse" x1="559.7008" y1="253.4444" x2="381.1507" y2="-1.5515">
		<stop  offset="0" style="stop-color:#EC766A"/>
		<stop  offset="1" style="stop-color:#F19D96"/>
	</linearGradient>
	<path class="st2" d="M470.5,238.6c91.5,0,166.7-23.7,175.3-54.1c0.5-1.9,0.9-3.8,0.9-5.8V74.1c0-34.4-78.9-62.3-176.2-62.3
		c-97.3,0-176.2,27.9-176.2,62.3v104.7c0,2,0.3,3.9,0.9,5.8C303.8,214.9,379,238.6,470.5,238.6z M325.8,65.8
		c7.4-5.4,18.4-10.6,31.9-15c30.4-10,70.5-15.6,112.9-15.6c42.4,0,82.4,5.5,112.9,15.6c13.4,4.4,24.5,9.6,31.9,15
		c5.7,4.2,7.7,7.3,8,8.3c-0.3,1-2.3,4.1-8,8.3c-7.4,5.4-18.5,10.6-31.9,15c-30.4,10-70.5,15.6-112.9,15.6
		c-42.4,0-82.4-5.5-112.9-15.6c-13.4-4.4-24.5-9.6-31.9-15c-5.7-4.2-7.7-7.3-8-8.3C318.1,73.1,320.1,70,325.8,65.8z"/>
</g>
</svg>
