<?xml version="1.0" encoding="utf-8"?>
<!-- Generator: Adobe Illustrator 21.0.0, SVG Export Plug-In . SVG Version: 6.00 Build 0)  -->
<svg version="1.1" id="图层_1" xmlns="http://www.w3.org/2000/svg" xmlns:xlink="http://www.w3.org/1999/xlink" x="0px" y="0px"
	 viewBox="0 0 695.9 700.5" style="enable-background:new 0 0 695.9 700.5;" xml:space="preserve">
<style type="text/css">
	.st0{fill:url(#SVGID_1_);}
</style>
<g>
	<g>
		<linearGradient id="SVGID_1_" gradientUnits="userSpaceOnUse" x1="527.5564" y1="597.2258" x2="132.0067" y2="32.3223">
			<stop  offset="0" style="stop-color:#EC766A"/>
			<stop  offset="1" style="stop-color:#F19D96"/>
		</linearGradient>
		<path class="st0" d="M581.6,369.6H401v81.9h87.2V435c0-38.2,16.4-34.3,40.9-12.4l91.2,71.4c7.8,6.3,9.8,15.1,9.8,18.3
			c0,3.2-1.9,11-9.8,16.9l-91.2,66.2c-24.5,20.3-40.9,26.5-40.9-11.5v-16.6H401v72.1c0,27.9-26.1,50.7-58,50.7
			c-31.9,0-58-22.8-58-50.7v-72.1H111.2c-28.2,0-51.3-26.1-51.3-58s23.1-58,51.3-58H285v-81.9h-86.9c-0.1,0-0.2-0.1-0.2-0.1V386
			c0,38.2-16.4,34.3-40.9,12.4l-91.2-71.4c-7.8-6.3-9.6-13-9.6-18.2c0-5.2,1.8-11.1,9.6-16.9l91.2-66.2
			c24.5-20.3,40.9-26.5,40.9,11.5v16.6c0.1,0,0.2,0,0.2,0h79.5L135.4,104c-20.9-22.4-19.2-56.7,3.8-76.3c23-19.6,58.8-17.3,79.7,5.1
			l124.1,133l124.1-133C488,10.3,523.9,8,546.8,27.6c23,19.6,24.7,54,3.8,76.3L408.5,253.6h173.2c28.2,0,51.3,26.1,51.3,58
			C632.9,343.5,609.8,369.6,581.6,369.6L581.6,369.6z M581.6,369.6"/>
	</g>
</g>
</svg>
