<?xml version="1.0" encoding="utf-8"?>
<!-- Generator: Adobe Illustrator 21.0.0, SVG Export Plug-In . SVG Version: 6.00 Build 0)  -->
<svg version="1.1" id="图层_1" xmlns="http://www.w3.org/2000/svg" xmlns:xlink="http://www.w3.org/1999/xlink" x="0px" y="0px"
	 viewBox="0 0 695.9 700.5" style="enable-background:new 0 0 695.9 700.5;" xml:space="preserve">
<style type="text/css">
	.st0{fill:none;}
	.st1{fill:url(#SVGID_1_);}
	.st2{fill:url(#SVGID_2_);}
	.st3{fill:url(#SVGID_3_);}
	.st4{fill:url(#SVGID_4_);}
</style>
<rect x="20.9" y="-28.6" class="st0" width="625" height="716.9"/>
<rect x="50.8" y="9.6" class="st0" width="151.1" height="151.3"/>
<g>
	<linearGradient id="SVGID_1_" gradientUnits="userSpaceOnUse" x1="636.3869" y1="340.8772" x2="410.7073" y2="18.5734">
		<stop  offset="0" style="stop-color:#EC766A"/>
		<stop  offset="1" style="stop-color:#F19D96"/>
	</linearGradient>
	<path class="st1" d="M642.8,29.6H404.3c-16.4,0-29.8,13.5-29.8,30v240.2c0,16.5,13.4,30.1,29.8,30.1h238.6
		c16.4,0,29.8-13.6,29.8-30.1V59.6C672.7,43.1,659.3,29.6,642.8,29.6z M583.6,199.9H463.5c-12.7,0-23-9.1-23-20.1
		c0-11.1,10.4-20.1,23-20.1h120.2c12.7,0,23,9,23,20.1C606.6,190.8,596.3,199.9,583.6,199.9z"/>
	<linearGradient id="SVGID_2_" gradientUnits="userSpaceOnUse" x1="289.2074" y1="340.8967" x2="63.5115" y2="18.5695">
		<stop  offset="0" style="stop-color:#EC766A"/>
		<stop  offset="1" style="stop-color:#F19D96"/>
	</linearGradient>
	<path class="st2" d="M295.7,29.6H57c-16.4,0-29.8,13.5-29.8,30v240.2c0,16.5,13.4,30.1,29.8,30.1h238.6c16.4,0,29.8-13.5,29.8-30.1
		V59.6C325.5,43.1,312.1,29.6,295.7,29.6z M236.4,199.9h-40.1v40.3c0,12.7-9,23.2-20,23.2c-11,0-20-10.4-20-23.2v-40.3h-40.1
		c-12.7,0-23-9.1-23-20.1c0-11.1,10.3-20.1,23-20.1h40.1v-40.4c0-12.7,9-23.2,20-23.2c11,0,20,10.4,20,23.2v40.4h40.1
		c12.7,0,23,9,23,20.1C259.5,190.8,249.1,199.9,236.4,199.9z"/>
	<linearGradient id="SVGID_3_" gradientUnits="userSpaceOnUse" x1="289.1927" y1="686.0434" x2="63.5197" y2="363.749">
		<stop  offset="0" style="stop-color:#EC766A"/>
		<stop  offset="1" style="stop-color:#F19D96"/>
	</linearGradient>
	<path class="st3" d="M295.7,374.8H57c-16.4,0-29.8,13.6-29.8,30V645c0,16.5,13.4,30,29.8,30h238.6c16.4,0,29.8-13.5,29.8-30V404.8
		C325.5,388.3,312.1,374.8,295.7,374.8z M176.4,440.5c12.7,0,23.1,10.4,23.1,23.2c0,12.8-10.3,23.3-23.1,23.3
		c-12.8,0-23.1-10.5-23.1-23.3C153.3,450.8,163.6,440.5,176.4,440.5z M176.4,609.3c-12.7,0-23.1-10.4-23.1-23.3
		c0-12.8,10.3-23.2,23.1-23.2c12.7,0,23.1,10.4,23.1,23.2C199.4,598.9,189.1,609.3,176.4,609.3z M236.4,545H116.3
		c-12.7,0-23-9.1-23-20.2c0-11,10.3-20.1,23-20.1h120.2c12.7,0,23,9.1,23,20.1C259.5,536,249.1,545,236.4,545z"/>
	<linearGradient id="SVGID_4_" gradientUnits="userSpaceOnUse" x1="636.3855" y1="686.043" x2="410.7155" y2="363.7529">
		<stop  offset="0" style="stop-color:#EC766A"/>
		<stop  offset="1" style="stop-color:#F19D96"/>
	</linearGradient>
	<path class="st4" d="M642.8,374.8H404.3c-16.4,0-29.8,13.6-29.8,30V645c0,16.5,13.4,30,29.8,30h238.6c16.4,0,29.8-13.5,29.8-30
		V404.8C672.7,388.3,659.3,374.8,642.8,374.8z M583.6,583.8H463.5c-12.7,0-23-9.1-23-20.1c0-11.1,10.4-20.2,23-20.2h120.2
		c12.7,0,23,9.1,23,20.2C606.6,574.7,596.3,583.8,583.6,583.8z M583.6,506.3H463.5c-12.7,0-23-9.1-23-20.2c0-11.1,10.4-20.2,23-20.2
		h120.2c12.7,0,23,9.1,23,20.2C606.6,497.2,596.3,506.3,583.6,506.3z"/>
</g>
</svg>
