<?xml version="1.0" encoding="utf-8"?>
<!-- Generator: Adobe Illustrator 21.0.0, SVG Export Plug-In . SVG Version: 6.00 Build 0)  -->
<svg version="1.1" id="图层_1" xmlns="http://www.w3.org/2000/svg" xmlns:xlink="http://www.w3.org/1999/xlink" x="0px" y="0px"
	 viewBox="0 0 661.5 738" style="enable-background:new 0 0 661.5 738;" xml:space="preserve">
<style type="text/css">
	.st0{fill:url(#SVGID_1_);}
	.st1{fill:url(#SVGID_2_);}
	.st2{fill:none;}
</style>
<g>
	<linearGradient id="SVGID_1_" gradientUnits="userSpaceOnUse" x1="413.2372" y1="173.9319" x2="274.023" y2="-24.8866">
		<stop  offset="0" style="stop-color:#EC766A"/>
		<stop  offset="1" style="stop-color:#F19D96"/>
	</linearGradient>
	<path class="st0" d="M240.7,162.9H429l50.5-69.3c0,0,37.9-46.2-12.6-66.7c-48.3-19.7-125.4-18.1-132-18c-6.6-0.2-83.7-1.7-132,18
		c-50.5,20.6-12.7,66.7-12.7,66.7L240.7,162.9z"/>
	<linearGradient id="SVGID_2_" gradientUnits="userSpaceOnUse" x1="491.428" y1="722.4659" x2="159.6714" y2="248.6683">
		<stop  offset="0" style="stop-color:#EC766A"/>
		<stop  offset="1" style="stop-color:#F19D96"/>
	</linearGradient>
	<path class="st1" d="M418.8,198.4H247.5c0,0-226.6,84.5-226.6,317.7c0,203.8,249.4,210.2,312.3,208.5
		c62.9,1.6,312.3-4.7,312.3-208.5C645.4,282.9,418.8,198.4,418.8,198.4z M395.5,481.5h51.2c11.9,0,21.5,9.5,21.5,21.5
		c0,11.9-9.7,21.5-21.6,21.5h-83.3v92.7c0,12.1-9.8,21.9-22,21.9c-12.1,0-22-10-22-21.9v-92.7h-77.9c-11.9,0-21.6-9.6-21.6-21.5
		c0-11.9,9.6-21.5,21.4-21.5h78.1v-44.2h-77.2c-12.3,0-22.3-9.9-22.3-22.2c0-12.3,10-22.2,22.3-22.2H292l-57.8-57.8
		c-7.7-7.7-7.7-20.2,0.1-28c7.7-7.7,20.2-7.8,28-0.1l66.7,66.7c5.2,5.2,6.9,12.5,5.1,19.1h4.3c-1.1-6.3,0.7-12.9,5.6-17.7l67.9-67.9
		c7.9-7.9,20.6-7.8,28.5,0.1c7.9,7.9,7.9,20.6,0.1,28.5l-57.1,57.1H446c12.3,0,22.3,9.9,22.3,22.2c0,12.3-10,22.2-22.3,22.2h-82.7
		v44.2H395.5z"/>
</g>
<rect x="20.9" y="8.9" class="st2" width="625" height="716.9"/>
</svg>
