<?xml version="1.0" encoding="utf-8"?>
<!-- Generator: Adobe Illustrator 21.0.0, SVG Export Plug-In . SVG Version: 6.00 Build 0)  -->
<svg version="1.1" id="图层_1" xmlns="http://www.w3.org/2000/svg" xmlns:xlink="http://www.w3.org/1999/xlink" x="0px" y="0px"
	 viewBox="0 0 474.5 183.5" style="enable-background:new 0 0 474.5 183.5;" xml:space="preserve">
<style type="text/css">
	.st0{fill-rule:evenodd;clip-rule:evenodd;fill:#C30004;}
	.st1{fill-rule:evenodd;clip-rule:evenodd;fill:#424040;}
</style>
<g>
	<path class="st0" d="M79,4C48.3,8.1,21.7,28.2,9.4,56.6c-3.1,7-5.2,14.4-6.4,21.9l13.7,13.7L3,105.9c1.3,8.3,3.7,16.3,7.3,24
		c12.6,26.9,38.2,46.4,68.7,50.5v-63.2l-15.3-15.3c-5.4-5.4-5.4-14.1,0-19.5L79,67.2V4L79,4z M27.7,109.7l17.5-17.5L27.7,74.7
		C32.1,59,42.1,45.5,55.6,36.9v110.6C42.1,138.8,32.1,125.4,27.7,109.7z"/>
	<path class="st0" d="M68.2,86.9l17.4-17.4c2.9-2.9,7.7-2.9,10.6,0l17.4,17.4c2.9,2.9,2.9,7.7,0,10.6l-17.4,17.4
		c-2.9,2.9-7.7,2.9-10.6,0L68.2,97.5C65.3,94.6,65.3,89.8,68.2,86.9z"/>
	<path class="st0" d="M102.8,4c30.7,4.1,57.3,24.2,69.7,52.6c3.1,7,5.2,14.4,6.4,21.9l-13.7,13.7l13.7,13.7
		c-1.3,8.3-3.7,16.3-7.3,24c-12.6,26.9-38.2,46.4-68.7,50.5v-63.2l15.3-15.3c5.4-5.4,5.4-14.1,0-19.5l-15.3-15.3V4L102.8,4z
		 M154.1,109.7l-17.5-17.5l17.5-17.5c-4.3-15.7-14.4-29.1-27.9-37.8v110.6C139.7,138.8,149.7,125.4,154.1,109.7z"/>
</g>
<g>
	<path class="st1" d="M272.1,60.7h-13.6v42.9h-16.5c0-20.7,0-41.3,0-62h-31.2v-9.5H262c9.3,0.2,18.7-0.8,28-3v9.8
		c-8.1,2-16.8,2.8-25.9,2.6h-5.7v9.5h29.4V83c0.5,8.7-4.4,13-14.7,12.8h-9.7l4.7-9.5c2.9,0.2,4.2-1.1,3.9-3.9V60.7L272.1,60.7z
		 M468.8,30.9v17.4c0.5,8.7-3.5,12.8-11.8,12.1h-38.7v-8.9l-7.2,7.6V104h-14V71.7l-7.2,7.4V64.5l18-15.6h10.5V42
		c12.3,0,24.6,0,36.9,0v-3.3c-12.3,0-24.6,0-36.9,0v-7.9H468.8L468.8,30.9z M451.3,52.5c2.9,0.2,4.2-0.9,4-3.3h-23.3v3.3H451.3
		L451.3,52.5z M472.7,75.2h-9v-3.6h4.5L472,63h-56.4v8.5h33.7v3.6h-35.9v8.2h35.9v8.2c0,2.8-1.1,3.9-4,3.9h-9.9l2.7-7.9h-12.9
		l-5.9,15.8h32.9c7.9,0,11.7-3.6,11.5-11.5v-8.5h4.5L472.7,75.2L472.7,75.2z M390.2,55.1l28-24.3h-15.4l-12.6,10.9V55.1L390.2,55.1z
		 M358.3,61.8l-8.3-3c-2.6,3.9-6.8,7.3-12.5,10.2h5v2.9c0,0.6,0,1.2,0,1.8c11.4,0,22.7,0,34.1,0v18c0.5,8.1-4.1,11.9-13.6,11.5
		h-12.6l6.8-8.2c2.6,0.2,3.8-0.9,3.6-3.3v-9.1c-6.5,0-12.9,0-19.4,0c-4.3,18-20.6,20.3-40.2,22v-7.9c15.3-2.8,23.7-7.5,25.1-14.1
		H303v-8.8h23.7V69h5v-5.9c2.9-2.4,5-4.8,6.4-7.2l-4.6-1.3v-8.2l7.9,1.6c0.5-2,0.8-4,1.1-6.2h-8.6v-8.5h8.6V28h13.3v3.6v1.6H373
		v26.9c0,1.3,0.7,2,2.2,2c1.2,0,1.8-0.7,1.8-2l7.2-4.9v6.5c0.2,6.3-3,9.4-9.7,9.2h-4.7c-6.9,0.2-10.3-2.9-10.1-9.2v-20h-4.3
		c-0.2,3-0.7,5.8-1.4,8.2l4.3,1.5V61.8L358.3,61.8z M310.9,28v5.2h-9.7v8.5h9.7V48l-10.4,2v9.4l10.4-2.2v2.9c0,1.8-0.7,2.6-2.9,2.6
		l-4,8.5h8.3c8.1,0,11.9-3.4,11.9-10.8v-5.9l4.3-1l2.9-8.8l-7.2,1.3v-4.3h2.8l4-8.5h-6.8V28H310.9L310.9,28z M229.4,95.8
		c0-14.9,0-29.7,0-44.6h-15.8v44.6H229.4z"/>
	<g>
		<path class="st1" d="M456.7,110.7v13.2h8.6v6.2h-8.6v15.1c-0.2,3.3,1.4,4.8,4.6,4.6c1.5-0.1,3-0.6,4.7-1.4v5.4
			c-2.5,1.7-5.4,2.5-8.8,2.5c-8.1,0.1-12-3.2-12-9.9v-28.4L456.7,110.7z"/>
		<polygon class="st1" points="438.6,155.4 426.9,155.4 426.9,124.5 438.6,118.1 		"/>
		<polygon class="st1" points="426.9,117.7 426.9,110.9 438.6,110.9 		"/>
		<path class="st1" d="M342.7,151v-6c4.7,3.2,9.7,4.9,14.9,5.2c6.8,0.4,10.3-0.8,10.5-3.5c0.3-1.9-2.1-3.3-7.3-4.1
			c-2.9-0.4-5.7-0.9-8.3-1.4c-5.7-1.5-8.6-4.4-8.8-8.5c0.3-6.3,5.8-9.6,16.4-9.7c9.9-0.3,16.1,2.9,18.6,9.5h-11.5
			c-1-2.1-3.2-3.1-6.6-3.1c-3.3,0.1-5,1.1-5.1,2.9c-0.2,1.5,1.5,2.6,5.1,3.1l8.8,1.9c7.2,1.5,10.7,4.8,10.5,9.7
			c0.2,6.1-5.5,9.2-16.9,9.3C354.8,156.3,348.1,154.6,342.7,151z"/>
		<path class="st1" d="M339,142.5h-25.1l6.1-6.2h7.8c-0.4-9.6-16.3-9.7-18.1,0.8c-0.7,4.4,0.9,9.3,4.4,11.3c2.1,1.2,4.8,1.9,8.3,2
			c5.9,0.1,11.2-2.1,16.1-6.2v6.6c-4.4,3.7-10.6,5.6-18.6,5.6c-14-0.4-21.3-5.8-22-16.1c0.7-21.9,33.1-21.8,39.3-8
			C338.5,135.1,339.1,138.5,339,142.5z"/>
		<path class="st1" d="M229.3,156.2H211v-42l11.7-6.4c0,14.1,0,28.3,0,42.4h4.4c16,0,15.8-21.2-0.2-20.9h-0.3v-6.4h2.7
			C257.7,122.9,258.4,156.5,229.3,156.2z"/>
		<path class="st1" d="M402.4,156.2h-18.3v-42l11.7-6.4c0,14.1,0,28.3,0,42.4h4.4c16,0,15.8-21.2-0.2-20.9h-0.3v-6.4h2.7
			C430.7,122.9,431.4,156.5,402.4,156.2z"/>
		<path class="st1" d="M294.5,142.5h-25.1l6.1-6.2h7.8c-0.4-9.6-16.3-9.7-18.1,0.8c-0.7,4.4,0.9,9.3,4.4,11.3c2.1,1.2,4.8,1.9,8.3,2
			c5.9,0.1,11.2-2.1,16.1-6.2v6.6c-4.4,3.7-10.6,5.6-18.6,5.6c-14-0.4-21.3-5.8-22-16.1c0.7-21.9,33.1-21.8,39.3-8
			C294,135.1,294.6,138.5,294.5,142.5z"/>
	</g>
</g>
</svg>
