<?xml version="1.0" encoding="utf-8"?>
<!-- Generator: Adobe Illustrator 21.0.0, SVG Export Plug-In . SVG Version: 6.00 Build 0)  -->
<svg version="1.1" id="图层_1" xmlns="http://www.w3.org/2000/svg" xmlns:xlink="http://www.w3.org/1999/xlink" x="0px" y="0px"
	 viewBox="0 0 682 524" style="enable-background:new 0 0 682 524;" xml:space="preserve">
<style type="text/css">
	.st0{fill:#7A7A7A;}
	.st1{fill:#7F7F7F;}
	.st2{fill:#878787;}
	.st3{fill:#969696;}
	.st4{fill:#9E9E9E;}
	.st5{fill:#A5A5A5;}
	.st6{fill:#AFAFAF;}
	.st7{fill:#C4C4C4;}
	.st8{fill:none;}
	.st9{fill:#DDDDDD;}
	.st10{fill:#FFFFFF;}
</style>
<path class="st0" d="M603.5,18.9c31.6,0,57.3,25.7,57.3,57.3v367.3c0.1,31.4-25.5,57-56.9,57H76.2c-31.4,0-57-25.5-57-57V76.1
	c0-31.6,25.7-57.3,57.3-57.3H603.5z M603.5,18.9"/>
<path class="st1" d="M660.8,76.1c0-31.6-25.7-57.3-57.3-57.3H576c47.2,52.6,78.1,120.1,84.7,194.6L660.8,76.1z M19.2,76.1v27
	c14.2-30.9,33-59.3,55.4-84.3C43.8,19.9,19.2,45.1,19.2,76.1L19.2,76.1z M19.2,384.4v59c0,31.4,25.5,57,57,57h31
	C70,468.7,39.8,429.2,19.2,384.4L19.2,384.4z M660.8,443.4V274.1c-8.1,90.4-51.9,170.6-117.3,226.2h60.4
	C635.3,500.4,660.9,474.9,660.8,443.4L660.8,443.4z M660.8,443.4"/>
<path class="st2" d="M659.5,273.5v-60.7c-6.6-74.5-37.6-142-84.7-194.6h-64.1c54.9,52.8,89,127,89,209.1c0,125-79.1,231.6-190,272.4
	h132.6C607.5,444,651.4,364,659.5,273.5L659.5,273.5z M19.2,227.3c0-82.2,34.2-156.3,89-209.1H75.1c-0.6,0-1.3,0-1.8,0.1
	c-22.5,25-41.2,53.4-55.4,84.3v281.1c20.6,44.9,50.8,84.4,88,116h103.4C98.3,458.9,19.2,352.4,19.2,227.3L19.2,227.3z M19.2,227.3"
	/>
<path class="st3" d="M600.9,228c0-82.2-34.2-156.3-89-209.1h-67.8c58,44.5,95.4,114.5,95.4,193.3c0,134.5-109,243.4-243.4,243.4
	c-134.5,0-243.4-109-243.4-243.4c0-78.7,37.4-148.8,95.4-193.3h-38.5c-54.9,52.8-89,127-89,209.1c0,125,79.1,231.6,190,272.4H411
	C521.8,459.6,600.9,353,600.9,228L600.9,228z M600.9,228"/>
<path class="st4" d="M52.6,212.1c0,134.5,109,243.4,243.4,243.4c134.5,0,243.4-109,243.4-243.4c0-78.7-37.4-148.8-95.4-193.3h-77.4
	c66,31.8,111.6,99.3,111.6,177.4c0,108.6-88.1,196.8-196.8,196.8c-108.7,0-196.8-88.1-196.8-196.8c0-78.2,45.6-145.7,111.6-177.4
	h-48.2C90.1,63.3,52.6,133.3,52.6,212.1L52.6,212.1z M52.6,212.1"/>
<path class="st5" d="M84.6,196.3c0,108.6,88.1,196.8,196.8,196.8c108.7,0,196.8-88.1,196.8-196.8c0-78.2-45.6-145.7-111.6-177.4
	H196.2C130.2,50.6,84.6,118.1,84.6,196.3L84.6,196.3z M266.9,30.4c82.9,0,150.1,67.2,150.1,150.1s-67.2,150.1-150.1,150.1
	c-82.9,0-150.1-67.2-150.1-150.1S184,30.4,266.9,30.4L266.9,30.4z M266.9,30.4"/>
<path class="st6" d="M266.9,330.5c82.9,0,150.1-67.2,150.1-150.1S349.8,30.4,266.9,30.4c-82.9,0-150.1,67.2-150.1,150.1
	S184,330.5,266.9,330.5L266.9,330.5z M252.2,61.3c57.1,0,103.4,46.3,103.4,103.4c0,57-46.3,103.4-103.4,103.4
	c-57,0-103.4-46.3-103.4-103.4C148.9,107.6,195.1,61.3,252.2,61.3L252.2,61.3z M252.2,61.3"/>
<path class="st7" d="M148.9,164.6c0,57.1,46.3,103.4,103.4,103.4c57.1,0,103.4-46.3,103.4-103.4c0-57.1-46.3-103.4-103.4-103.4
	C195.2,61.3,148.9,107.5,148.9,164.6L148.9,164.6z M148.9,164.6"/>
<path class="st0" d="M603.9,507.6H76.2c-35.4,0-64.2-28.8-64.2-64.2V76.1c0-35.5,29-64.5,64.5-64.5h527c35.5,0,64.5,29,64.5,64.5
	v367.3c0.1,17.1-6.6,33.2-18.7,45.3C637.2,500.9,621,507.6,603.9,507.6L603.9,507.6z M76.5,26.1c-27.6,0-50.1,22.5-50.1,50.1v367.3
	c0,27.4,22.3,49.8,49.8,49.8h527.8c13.3,0,25.8-5.2,35.2-14.6c9.4-9.4,14.5-21.8,14.5-35.1V76.1c0-27.6-22.5-50.1-50.1-50.1H76.5z
	 M76.5,26.1"/>
<rect x="12.1" y="11.7" class="st8" width="655.9" height="496.8"/>
<path class="st9" d="M309,249.3L83.4,84.7c-9.7-7-5-23.4,6.6-23.4h499.9c11.7,0,16.2,16.4,6.6,23.4L371,249.3
	C352.2,263,327.8,263,309,249.3L309,249.3z M309,249.3"/>
<path class="st10" d="M58.2,136.9v99.3c0,7.9,6.5,14.4,14.4,14.4c7.9,0,14.4-6.5,14.4-14.4v-99.3c0-7.9-6.5-14.4-14.4-14.4
	C64.7,122.5,58.2,129,58.2,136.9L58.2,136.9z M58.2,284.2v8.4c0,7.9,6.5,14.4,14.4,14.4c7.9,0,14.4-6.5,14.4-14.4v-8.4
	c0-7.9-6.5-14.4-14.4-14.4C64.7,269.8,58.2,276.2,58.2,284.2L58.2,284.2z M58.2,284.2"/>
</svg>
