<?xml version="1.0" encoding="utf-8"?>
<!-- Generator: Adobe Illustrator 21.0.0, SVG Export Plug-In . SVG Version: 6.00 Build 0)  -->
<svg version="1.1" id="图层_1" xmlns="http://www.w3.org/2000/svg" xmlns:xlink="http://www.w3.org/1999/xlink" x="0px" y="0px"
	 viewBox="0 0 632.8 616.2" style="enable-background:new 0 0 632.8 616.2;" xml:space="preserve">
<style type="text/css">
	.st0{fill:#7A7A7A;}
	.st1{fill:#7F7F7F;}
	.st2{fill:#878787;}
	.st3{fill:#969696;}
	.st4{fill:#A5A5A5;}
	.st5{fill:#AFAFAF;}
	.st6{fill:#C4C4C4;}
	.st7{fill:#CECECE;}
	.st8{fill:none;}
	.st9{fill:#DDDDDD;}
	.st10{fill:#FFFFFF;}
</style>
<path class="st0" d="M594.7,170.9c-59.2-23.1-92.3-83.8-108.1-122.5c-8.4-20.6-28.5-34.1-50.8-34.1H196.1
	c-22.2,0-42.4,13.4-50.8,34.1c-15.8,38.7-49,99.4-108.2,122.6c-16.1,6.2-26.3,21.9-26.4,39.1c-0.4,223.8,206,348.3,279.6,385.7
	c16.1,8.2,35.1,8.1,51.1-0.2c73.4-38.1,280.3-164.9,279.7-385.4C621.1,192.9,610.7,177.3,594.7,170.9L594.7,170.9z M594.7,170.9"/>
<path class="st1" d="M196.1,14.5c-20.8,0-39.8,11.8-49,30.1c19.4-12.4,40.3-22.5,62.4-30.1H196.1z M37.1,171
	c-16.1,6.2-26.3,21.9-26.4,39.1c0,15.7,1,30.9,2.9,45.6c3.7-29.9,11.8-58.5,23.8-84.9C37.4,170.9,37.2,170.9,37.1,171L37.1,171z
	 M486.7,48.5c-8.4-20.6-28.5-34.1-50.8-34.1h-36.2c35.8,12.2,68.6,31.3,96.6,55.6C492.6,62.4,489.4,55.1,486.7,48.5L486.7,48.5z
	 M265.5,582.5c9.3,5.3,17.7,9.7,24.8,13.3c16.1,8.2,35.1,8.1,51.1-0.2c9.5-4.9,21.2-11.3,34.4-19.2c-22.8,5.7-46.7,8.7-71.3,8.7
	C291.4,585.1,278.3,584.2,265.5,582.5L265.5,582.5z M594.7,170.9c-11.4-4.5-21.8-10.3-31.4-17.1c22,41.1,34.5,88.1,34.5,138
	c0,19.4-1.9,38.4-5.5,56.7c17.9-41.1,29-87.3,28.8-138.5C621.1,192.9,610.7,177.3,594.7,170.9L594.7,170.9z M594.7,170.9"/>
<path class="st2" d="M563.4,153.9c-31.5-22.5-53.1-55.6-67-83.8c-28.1-24.2-60.8-43.3-96.6-55.6H209.5c-22.2,7.6-43,17.8-62.4,30.1
	c-0.6,1.3-1.3,2.6-1.8,4c-4.6,11.2-10.6,24.2-18.2,37.7c44.2-38,101.8-61,164.7-61c139.7,0,252.9,113.2,252.9,252.9
	S431.5,530.9,291.8,530.9S38.9,417.7,38.9,278.1c0-46.7,12.6-90.4,34.7-127.9c-10.8,8.4-22.8,15.5-36.2,20.8
	c-12,26.5-20.2,55-23.8,84.9C36,430.6,185.5,537.3,265.5,582.5c12.8,1.7,25.8,2.6,39,2.6c24.6,0,48.5-3,71.3-8.7
	c65.3-39,167-114.5,216.5-227.8c3.6-18.3,5.5-37.3,5.5-56.7C597.9,242,585.4,195,563.4,153.9L563.4,153.9z M563.4,153.9"/>
<path class="st3" d="M291.8,530.9c139.7,0,252.9-113.2,252.9-252.9S431.5,25.2,291.8,25.2c-62.9,0-120.5,23-164.7,61
	c-12.8,22.5-30.3,46-53.4,63.9c-22.1,37.5-34.7,81.2-34.7,127.9C38.9,417.7,152.1,530.9,291.8,530.9L291.8,530.9z M278.9,51.7
	c117.4,0,212.6,95.2,212.6,212.6s-95.1,212.6-212.6,212.6c-117.4,0-212.5-95.2-212.5-212.6S161.5,51.7,278.9,51.7L278.9,51.7z
	 M278.9,51.7"/>
<path class="st4" d="M278.9,476.8c117.4,0,212.6-95.2,212.6-212.6S396.3,51.7,278.9,51.7c-117.4,0-212.5,95.2-212.5,212.6
	S161.5,476.8,278.9,476.8L278.9,476.8z M266.1,78.1c95.1,0,172.2,77.1,172.2,172.2c0,95.1-77.1,172.2-172.2,172.2
	c-95.1,0-172.2-77.1-172.2-172.2C93.9,155.3,171,78.1,266.1,78.1L266.1,78.1z M266.1,78.1"/>
<path class="st5" d="M266.1,422.6c95.1,0,172.2-77.1,172.2-172.2c0-95.1-77.1-172.2-172.2-172.2c-95.1,0-172.2,77.1-172.2,172.2
	C93.9,345.5,171,422.6,266.1,422.6L266.1,422.6z M253.3,104.6c72.9,0,131.9,59,131.9,131.9c0,72.9-59.1,131.9-131.9,131.9
	c-72.8,0-131.9-59-131.9-131.9C121.4,163.7,180.4,104.6,253.3,104.6L253.3,104.6z M253.3,104.6"/>
<path class="st6" d="M253.3,368.5c72.9,0,131.9-59,131.9-131.9c0-72.9-59.1-131.9-131.9-131.9c-72.8,0-131.9,59-131.9,131.9
	C121.4,309.4,180.4,368.5,253.3,368.5L253.3,368.5z M240.4,131.1c50.6,0,91.6,41,91.6,91.6c0,50.6-41,91.6-91.6,91.6
	c-50.6,0-91.6-41-91.6-91.6C148.8,172.1,189.9,131.1,240.4,131.1L240.4,131.1z M240.4,131.1"/>
<path class="st7" d="M175.6,287.5c35.8,35.8,93.8,35.8,129.5,0c35.8-35.8,35.8-93.8,0-129.5c-35.8-35.8-93.8-35.8-129.5,0
	C139.9,193.7,139.9,251.7,175.6,287.5L175.6,287.5z M175.6,287.5"/>
<path class="st0" d="M315.7,609c-9.8,0-19.6-2.2-28.6-6.8c-36.9-18.7-107.9-59.7-169.5-124.4c-34.3-36-61.3-74.8-80.2-115.3
	C14.9,314.3,3.5,263,3.6,210.1c0-20.6,12.2-38.6,31-45.8c25-9.8,47.7-27.6,67.3-53.1c17.8-23.1,29.8-48.3,36.8-65.4
	c9.5-23.4,32.1-38.6,57.4-38.6h239.8c25.4,0,47.9,15.1,57.4,38.6c7,17.1,19,42.3,36.7,65.4c19.6,25.4,42.2,43.4,67.3,53.1
	c18.8,7.4,31,25.4,31,45.8c0.2,52.2-11.2,103-33.8,151c-19,40.2-45.9,79-80.2,115.1c-61.6,64.9-132.6,106.6-169.5,125.8
	C335.7,606.7,325.7,609,315.7,609L315.7,609z M196.1,21.7c-19.5,0-36.8,11.6-44.1,29.6c-10.6,26.1-23.7,49.2-38.7,68.8
	c-21.3,27.6-46,47-73.5,57.8c-13,5-21.8,18.1-21.8,32.5C17.8,304.5,54.8,391.2,128,468.1c60.1,63.1,129.5,103.2,165.6,121.4
	c14,7.1,30.6,7,44.6-0.2c36.1-18.7,105.5-59.5,165.8-122.9C577.2,389.2,614.3,303,614,210.2c-0.1-14.3-8.8-27.4-21.8-32.5
	c-27.4-10.7-52.2-30.2-73.4-57.7c-15.1-19.6-28.1-42.7-38.7-68.7c-7.3-18-24.6-29.6-44.1-29.6L196.1,21.7L196.1,21.7z M196.1,21.7"
	/>
<rect x="3.6" y="7.1" class="st8" width="625" height="602.9"/>
<path class="st9" d="M367,368.1h-27.4v-57.1c47.7-12.2,83-55.4,83-106.9c0-61-49.4-110.3-110.3-110.3s-110.3,49.4-110.3,110.3
	c0,51.4,35.3,94.7,83,106.9v129.4c0,15,12.3,27.4,27.4,27.4c15,0,27.4-12.3,27.4-27.4v-17.4h27.4c15,0,27.4-12.3,27.4-27.4
	C394.4,380.4,382.1,368.1,367,368.1L367,368.1z M256.7,204.1c0-30.7,24.9-55.6,55.6-55.6c30.7,0,55.6,24.9,55.6,55.6
	c0,30.7-24.9,55.6-55.6,55.6C281.5,259.7,256.7,234.8,256.7,204.1L256.7,204.1z M256.7,204.1"/>
<path class="st10" d="M87,324.2c-1.5,1.6-3.4,2.9-5.6,3.6c-7.5,2.6-15.8-1.3-18.4-8.8c-19.9-56.5-20.7-103.5-20.8-105.5
	c-0.1-7.9,6.2-14.5,14.2-14.6c7.9-0.1,14.5,6.2,14.6,14.2c0,0.8,1,44.7,19.1,96.3C92,314.8,90.7,320.5,87,324.2L87,324.2z
	 M110.6,376.1c-1,1.1-2.3,2.1-3.8,2.9c-7,3.7-15.8,0.9-19.4-6.2l-4.2-8c-3.7-7-0.9-15.8,6.2-19.4c7-3.7,15.8-0.9,19.4,6.2l4.2,8
	C115.8,365.3,114.7,371.8,110.6,376.1L110.6,376.1z M110.6,376.1"/>
</svg>
