<?xml version="1.0" encoding="utf-8"?>
<!-- Generator: Adobe Illustrator 21.0.0, SVG Export Plug-In . SVG Version: 6.00 Build 0)  -->
<svg version="1.1" id="图层_1" xmlns="http://www.w3.org/2000/svg" xmlns:xlink="http://www.w3.org/1999/xlink" x="0px" y="0px"
	 viewBox="0 0 580 692" style="enable-background:new 0 0 580 692;" xml:space="preserve">
<style type="text/css">
	.st0{clip-path:url(#SVGID_2_);fill:#FF556E;}
	.st1{clip-path:url(#SVGID_2_);fill:#FF5F71;}
	.st2{fill:#FF6974;}
	.st3{fill:#FF7377;}
	.st4{fill:#FF7E7A;}
	.st5{fill:#FF887D;}
	.st6{clip-path:url(#SVGID_4_);fill:#FF9280;}
	.st7{clip-path:url(#SVGID_4_);fill:#EF4868;}
	.st8{fill:#FFC7C7;}
	.st9{fill:#FFFFFF;}
</style>
<g>
	<g>
		<defs>
			<rect id="SVGID_1_" x="13" y="10" width="556.8" height="669.8"/>
		</defs>
		<clipPath id="SVGID_2_">
			<use xlink:href="#SVGID_1_"  style="overflow:visible;"/>
		</clipPath>
		<path class="st0" d="M152.2,10.7h278.4c76.9,0,139.2,62.3,139.2,139.2v389.8c0,76.9-62.3,139.2-139.2,139.2H152.2
			C75.3,678.9,13,616.6,13,539.7V149.9C13,73,75.3,10.7,152.2,10.7L152.2,10.7z M152.2,10.7"/>
		<path class="st0" d="M31.4,80.8C60.8,52.3,95.1,29,132.9,12.1C89.4,18.1,52.4,44.2,31.4,80.8L31.4,80.8z M15.6,566.1
			c12.3,64.2,68.9,112.8,136.7,112.8H234C147.6,668.8,70.9,627.3,15.6,566.1L15.6,566.1z M315.8,678.9h114.8
			c76.9,0,139.2-62.3,139.2-139.2v-20.2C514.7,605.8,422.6,666.4,315.8,678.9L315.8,678.9z M569.6,143.6
			c-3.3-73.9-64.3-132.9-139-132.9h-16.9C478,38.6,532.3,85.2,569.6,143.6L569.6,143.6z M569.6,143.6"/>
		<path class="st1" d="M569.8,519.4V149.9c0-2.1-0.1-4.2-0.2-6.3C532.3,85.1,478,38.6,413.7,10.7H152.2c-6.6,0-13,0.5-19.3,1.4
			C95.1,29,60.7,52.3,31.4,80.8C21,98.9,14.6,119.5,13.3,141.5C68,64.1,158,13.5,260,13.5c166.6,0,301.7,135,301.7,301.7
			c0,166.6-135.1,301.7-301.8,301.7c-102.1,0-192.4-50.7-247-128.4v51.1c0,9,0.9,17.8,2.5,26.4c55.4,61.2,132.1,102.7,218.4,112.8
			h81.9C422.6,666.4,514.7,605.8,569.8,519.4L569.8,519.4z M569.8,519.4"/>
	</g>
	<path class="st2" d="M260,616.9c166.6,0,301.8-135,301.8-301.7c0-166.6-135.1-301.7-301.8-301.7c-101.9,0-192.1,50.6-246.7,128
		c-0.2,2.8-0.2,5.6-0.2,8.4v46C52.4,107,141.6,45,245.1,45c140.2,0,253.8,113.6,253.8,253.8c0,140.2-113.6,253.8-253.8,253.8
		c-103.5,0-192.6-62-232.1-151v87C67.6,566.2,157.9,616.9,260,616.9L260,616.9z M260,616.9"/>
	<path class="st3" d="M245.1,552.6c140.2,0,253.8-113.6,253.8-253.8S385.3,44.9,245.1,44.9c-103.5,0-192.6,62-232.1,151v205.8
		C52.4,490.6,141.6,552.6,245.1,552.6L245.1,552.6z M230.2,76.5c113.7,0,205.9,92.2,205.9,205.9c0,113.8-92.2,205.8-205.9,205.8
		c-113.8,0-205.9-92.2-205.9-205.9C24.3,168.6,116.5,76.5,230.2,76.5L230.2,76.5z M230.2,76.5"/>
	<path class="st4" d="M230.2,488.2c113.7,0,205.9-92.2,205.9-205.9c0-113.8-92.2-205.8-205.9-205.8c-113.8,0-205.9,92.2-205.9,205.8
		C24.3,396,116.5,488.2,230.2,488.2L230.2,488.2z M215.3,107.9c87.3,0,158,70.7,158,158c0,87.3-70.7,158-158,158
		c-87.3,0-158-70.7-158-158C57.3,178.6,128,107.9,215.3,107.9L215.3,107.9z M215.3,107.9"/>
	<path class="st5" d="M215.3,423.9c87.3,0,158-70.7,158-158c0-87.3-70.7-158-158-158c-87.3,0-158,70.7-158,158
		C57.3,353.2,128,423.9,215.3,423.9L215.3,423.9z M200.4,139.4c60.8,0,110.1,49.3,110.1,110.1c0,60.8-49.3,110.1-110.1,110.1
		c-60.8,0-110.1-49.3-110.1-110.1C90.4,188.6,139.6,139.4,200.4,139.4L200.4,139.4z M200.4,139.4"/>
	<g>
		<defs>
			<rect id="SVGID_3_" x="13" y="10" width="556.8" height="669.8"/>
		</defs>
		<clipPath id="SVGID_4_">
			<use xlink:href="#SVGID_3_"  style="overflow:visible;"/>
		</clipPath>
		<path class="st6" d="M90.4,249.4c0,60.8,49.3,110.1,110.1,110.1c60.8,0,110.1-49.3,110.1-110.1c0-60.8-49.3-110.1-110.1-110.1
			C139.6,139.4,90.4,188.6,90.4,249.4L90.4,249.4z M90.4,249.4"/>
		<path class="st7" d="M430.6,25.1c33.4,0,64.6,13,88.2,36.6c23.6,23.6,36.6,54.9,36.6,88.2v389.8c0,33.4-13,64.6-36.6,88.2
			c-23.6,23.6-54.9,36.6-88.2,36.6H152.2c-33.4,0-64.6-13-88.2-36.6c-23.6-23.6-36.6-54.9-36.6-88.2V149.9c0-33.4,13-64.6,36.6-88.2
			c23.6-23.6,54.9-36.6,88.2-36.6H430.6 M430.6,10.7H152.2C75.3,10.7,13,73,13,149.9v389.8c0,76.9,62.3,139.2,139.2,139.2h278.4
			c76.9,0,139.2-62.3,139.2-139.2V149.9C569.8,73,507.5,10.7,430.6,10.7L430.6,10.7z M430.6,10.7"/>
	</g>
	<path class="st8" d="M416.7,117.8H166.1c-23,0-41.8,18.7-41.8,41.8v236.6c0,23,18.7,41.8,41.8,41.8h250.6c23,0,41.8-18.7,41.8-41.8
		V159.5C458.4,136.5,439.7,117.8,416.7,117.8L416.7,117.8z M291.4,479.7c-30.7,0-55.7,25-55.7,55.7c0,30.7,25,55.7,55.7,55.7
		c30.7,0,55.7-25,55.7-55.7C347.1,504.6,322.2,479.7,291.4,479.7L291.4,479.7z M291.4,479.7"/>
	<path class="st9" d="M77.2,253c-7.9,0-14.4-6.5-14.4-14.4v-99.3c0-7.9,6.5-14.4,14.4-14.4c7.9,0,14.4,6.5,14.4,14.4v99.3
		C91.6,246.6,85.2,253,77.2,253L77.2,253z M77.2,308.6c-7.9,0-14.4-6.5-14.4-14.4v-8.4c0-7.9,6.5-14.4,14.4-14.4
		c7.9,0,14.4,6.5,14.4,14.4v8.4C91.6,302.2,85.2,308.6,77.2,308.6L77.2,308.6z M77.2,308.6"/>
</g>
</svg>
