<?xml version="1.0" encoding="utf-8"?>
<!-- Generator: Adobe Illustrator 21.0.0, SVG Export Plug-In . SVG Version: 6.00 Build 0)  -->
<svg version="1.1" id="图层_1" xmlns="http://www.w3.org/2000/svg" xmlns:xlink="http://www.w3.org/1999/xlink" x="0px" y="0px"
	 viewBox="0 0 585 715.5" style="enable-background:new 0 0 585 715.5;" xml:space="preserve">
<style type="text/css">
	.st0{fill:#636363;}
	.st1{fill:none;}
	.st2{fill:#7F7F7F;}
	.st3{fill:#878787;}
	.st4{fill:#969696;}
	.st5{fill:#9E9E9E;}
	.st6{fill:#A5A5A5;}
	.st7{fill:#AFAFAF;}
	.st8{fill:#C4C4C4;}
	.st9{fill:#7A7A7A;}
	.st10{fill:#DDDDDD;}
	.st11{fill:#FFFFFF;}
</style>
<path class="st0" d="M560.4,552.7c2.3,6.9,5.1,10.4,5.1,26.5c0,16,5.5,74.2-15.8,90.5c-24.2,18.5-132.7,29.6-267.2,31.3
	c-128.4,1.6-225.5-10.6-251.3-28.1c-24.8-16.8-16-78.5-11.4-107.8c2.8-17,9.6-29.8,20.6-38.6c11-8.6,23.9-15.6,38.8-20.6
	c14.9-5,30.2-9.6,46.1-13.8c15.8-4.2,29.7-10.1,41.6-17.9c9.6-6,17-11.7,22.3-17.2c5.3-5.5,8.9-11,11-16.5c2.1-5.5,3-11.2,3-17.2
	s-0.2-12.3-0.7-19.3c-1-11-4.5-19.5-10.6-25.4c-6.2-6-13.2-12.2-21-18.6c-3.7-3.2-6.9-7.7-9.6-13.4c-2.8-5.8-5.3-11.6-7.6-17.5
	c-2.4-7-4.7-14.2-6.9-21.4c-3.2-1-6.5-2.6-9.6-4.8c-2.8-2.3-5.8-5.5-8.9-9.6c-3.2-4.2-6-10.1-8.2-17.9c-2.3-7.8-3-14.8-2.4-21
	c0.7-6.2,1.9-11.6,3.8-16.2c1.8-5,4.6-9.8,8.2-14.4c-0.5-17.4,0.5-34.9,2.8-52.2c1.8-14.6,5.1-30.2,10-46.7
	c4.9-16.5,11.8-31.4,21-44.6c8.7-12.3,18.4-22.6,29.2-30.6c10.7-8.1,21.7-14.3,32.7-18.9c11-4.6,22.1-7.8,33.4-9.6
	c11.2-1.8,22.1-2.8,32.7-2.8c13.3,0,26,1.6,38.2,4.8c12.2,3.2,23.5,7.4,34,12.3c10.5,5,19.9,10.6,28.2,16.8
	c8.3,6.2,14.9,12.5,19.9,18.9c11.4,14.6,20,30.9,25.8,48.5c5.8,17.6,9.8,34.2,12.1,49.9c2.8,18.3,3.9,36.7,3.4,55
	c3.2,1.8,5.8,4.6,7.6,8.3c1.8,3.2,3.3,7.4,4.5,12.3c1.1,5,1.2,11.2,0.3,18.6c-1.4,9.6-3.5,17.3-6.6,23c-3,5.8-6.3,10.2-10,13.4
	c-4.2,3.7-8.5,6.2-13,7.6c-1.8,7.4-3.9,14.4-6.2,21.4c-2.3,6-4.9,11.8-7.9,17.5c-3,5.8-6.3,10.2-10,13.4c-4.2,3.7-8.1,6.7-11.7,9.3
	c-3.7,2.6-6.9,5.1-9.6,7.9c-2.8,2.8-5,6.1-6.9,10c-1.8,3.9-3.2,8.6-4.2,14.2c-1.4,6.9-1.8,13.9-1.4,21c0.5,7.1,2.3,14.2,5.5,21.4
	c3.2,7.2,8.5,13.9,15.8,20.2c7.4,6.5,17.2,12.2,29.5,17.2c11.4,4.6,23.9,8.6,37.4,12.1c13.5,3.4,26.6,7.6,39.2,12.3
	c12.6,4.8,23.8,10.9,33.7,18.2C549.2,531.1,556.3,540.7,560.4,552.7L560.4,552.7z M560.4,552.7"/>
<rect x="7.4" y="10.4" class="st1" width="565.9" height="698.9"/>
<path class="st2" d="M448.9,694.6c52.1-5.4,89-13.1,101.9-23c17.2-13.2,16.8-53.8,16.1-77.4C535.9,636.1,495.6,670.6,448.9,694.6
	L448.9,694.6z M17.7,590.9c-3.5,31-4.5,70.9,14.7,83.9c15.4,10.4,56.2,19,113.9,23.8C95,674,50.8,636.7,17.7,590.9L17.7,590.9z
	 M244.2,26.6c-5.9,1.7-11.8,3.7-17.8,6.2c-11,4.6-21.8,10.9-32.7,18.9c-8.6,6.5-16.6,14.2-23.9,23.5c38.3-15,80-23.2,123.5-23.2
	c42.2,0,82.4,7.7,119.6,21.7c-0.1-0.2-0.2-0.2-0.3-0.4c-5-6.5-11.7-12.7-19.9-18.9c-8.2-6.2-17.7-11.8-28.2-16.8
	c-10.5-5-21.8-9.1-34-12.3c-6.8-1.8-13.9-3-21-3.8h-1.2C286.6,21.3,265.1,23.2,244.2,26.6L244.2,26.6z M244.2,26.6"/>
<path class="st3" d="M276.7,667.8C174,667.8,83.8,613,31.4,529.9c-6.3,8.2-10.3,18.7-12.3,31.5c-1,6.8-2.3,15.5-3.3,24.8
	c33,47.7,74.8,89.7,128.7,112.3c36,15.1,85.6,5.1,137.2,4.4c62.7-0.8,121.4,4.2,165.3-8.7c54.5-16.1,87-53.8,118-97.4
	c-0.2-5.7-0.4-17.6-0.4-20.7c0-16.7-2.8-20.4-5.1-27.6c-4.2-12.4-11.1-22.5-21-30.1c-2.2-1.7-4.6-3.3-6.8-4.9
	C481.1,605.6,385.9,667.8,276.7,667.8L276.7,667.8z"/>
<path class="st3" d="M168,74.1c-1.8,2.3-3.5,4.6-5.3,7c-6.6,9.5-12,19.8-16.2,31c39.2-19.4,83.4-30.4,130.2-30.4
	c60.5,0,116.6,18.2,163.3,49.7c-1-3.4-2.1-7-3.2-10.6c-5.7-17.5-14.2-33.5-25.4-48.1c-37.3-14-77.6-21.7-119.7-21.7
	C248,51,206.3,59.2,168,74.1L168,74.1z"/>
<path class="st2" d="M168,74.1"/>
<path class="st4" d="M262.8,604.5c-78.7,0-148.9-37-194-94.5c-10.4,4.5-19.8,10-28.1,16.5c-3,2.5-5.8,5.2-8.3,8.3
	C84.8,614.6,175,667.3,277.6,667.3c109.2,0,204.4-59.7,255-148.2c-8.2-5.2-17-9.8-26.9-13.5c-12-4.6-24.4-8.5-37.2-11.9
	C424.4,560.5,348.7,604.5,262.8,604.5L262.8,604.5z"/>
<path class="st4" d="M147.4,111.3c-1.8,4.5-3.3,9-4.7,13.8c-2.1,7-3.8,14.1-5.4,20.8c36.7-21.7,79.6-34.2,125.4-34.2
	c76.5,0,144.9,34.9,190.1,89.5c-0.6-10.4-1.5-21-3.1-31.4c-1.8-12.4-4.7-25.5-8.7-39.3c-46.6-31.4-102.8-49.7-163.3-49.7
	C230.8,80.8,186.6,91.8,147.4,111.3L147.4,111.3z"/>
<path class="st3" d="M147.4,111.3"/>
<path class="st5" d="M262.8,111.5c-45.8,0-88.6,12.5-125.4,34.2c-2,9-3.5,17.7-4.6,26c-0.3,2.6-0.6,5-1,7.6
	c32.7-23.4,72.7-37.1,116-37.1c97.4,0,178.4,69.7,196.2,161.9c1.7-1,3.4-2.4,5-3.8c3.7-3.2,7-7.7,10-13.4c3-5.8,5.1-13.4,6.6-23
	c1-7.4,0.8-13.5-0.3-18.6c-1.1-5-2.6-9.1-4.5-12.3c-1.8-3.7-4.4-6.5-7.6-8.3c0.2-7.9,0.1-15.8-0.3-23.6
	C407.6,146.3,339.2,111.5,262.8,111.5L262.8,111.5z M247.9,541.6c-49.4,0-94.6-17.9-129.4-47.6c-13.4,3.6-26.3,7.6-39,11.8
	c-3.7,1.2-7.3,2.6-10.7,4.1c45.1,57.4,115.3,94.5,194,94.5c85.9,0,161.7-44.1,205.8-110.7c-0.7-0.2-1.3-0.4-2-0.6
	c-13.5-3.4-26-7.4-37.4-12.1c-10.3-4.2-18.8-8.8-25.6-14.1C366.8,512.6,310.7,541.6,247.9,541.6L247.9,541.6z M247.9,541.6"/>
<path class="st6" d="M247.9,142.2c-43.3,0-83.4,13.8-116,37.1c-1.2,11.2-1.8,22.3-1.9,33.5c27.2-24.8,63.4-39.9,103-39.9
	c84.5,0,153,68.5,153,153c0,84.5-68.5,153-153,153c-19.9,0-39-3.8-56.5-10.7c-2.8,2.1-6,4.2-9.4,6.2c-11.9,7.8-25.8,13.8-41.6,17.9
	c-2.4,0.6-4.7,1.3-7,1.9c34.8,29.7,80,47.6,129.4,47.6c62.9,0,119-29.1,155.5-74.5c-1.4-1-2.7-2.1-3.9-3.1
	c-7.4-6.5-12.6-13.2-15.8-20.2c-3.2-7.1-5-14.2-5.5-21.4c-0.5-7.1,0-14.2,1.4-21c1-5.5,2.3-10.2,4.2-14.2c1.8-3.9,4.2-7.2,6.9-10
	c2.8-2.8,6-5.4,9.6-7.9c3.7-2.6,7.6-5.6,11.7-9.3c3.7-3.2,7-7.7,10-13.4c3-5.7,5.6-11.5,7.9-17.5c2.3-6.9,4.4-14,6.2-21.4
	c2.8-0.9,5.4-2.1,8.1-3.8C426.3,212,345.2,142.2,247.9,142.2L247.9,142.2z M247.9,142.2"/>
<path class="st7" d="M385.9,325.9c0-84.5-68.5-153-153-153c-39.7,0-75.9,15.1-103,39.9c0,3.7,0,7.4,0.1,11.1
	c-3.7,4.6-6.5,9.4-8.2,14.4c-1.8,4.6-3,10-3.8,16.2c-0.6,5-0.2,10.4,1.2,16.4c15.5-39.4,53.9-67.4,98.9-67.4
	c58.6,0,106.2,47.5,106.2,106.2c0,58.7-47.5,106.2-106.2,106.2c-5,0-9.9-0.4-14.6-1c0.1,2.9,0.2,5.7,0.2,8.4c0,6-1,11.7-3,17.2
	c-2.1,5.5-5.8,11-11,16.5c-3.4,3.5-7.8,7.2-13,11c17.5,7,36.6,10.7,56.5,10.7C317.5,478.9,385.9,410.4,385.9,325.9L385.9,325.9z
	 M385.9,325.9"/>
<path class="st8" d="M324.3,309.9c0-58.6-47.5-106.2-106.2-106.2c-45,0-83.4,27.9-98.9,67.4c0.3,1.4,0.7,3,1.1,4.6
	c2.3,7.8,5,13.8,8.2,17.9c3.2,4.2,6.2,7.4,8.9,9.6c3.2,2.3,6.5,3.9,9.6,4.8c2.2,7.1,4.6,14.2,6.9,21.4c2.3,5.9,4.8,11.8,7.6,17.5
	c2.8,5.8,6,10.2,9.6,13.4c7.8,6.5,14.8,12.6,21,18.6c6.2,6,9.8,14.4,10.6,25.4c0.2,3.8,0.5,7.4,0.6,10.9c4.7,0.7,9.7,1,14.6,1
	C276.7,416,324.3,368.5,324.3,309.9L324.3,309.9z M324.3,309.9"/>
<path class="st9" d="M260,708.3c-53.2,0-102.1-2.4-142.4-7.1c-31.5-3.7-72.8-10.5-90.3-22.4C1.2,661.1,5.9,608.1,12.8,563.9
	c3-18.8,10.9-33.2,23.3-43c11.6-9.2,25.4-16.5,41-21.8c14.6-5,29.8-9.5,46.6-13.9c15.1-4,28.4-9.7,39.4-17l0.2-0.1
	c9.3-5.8,16.2-11,21-16.1c4.6-4.8,7.7-9.4,9.4-14.1c1.8-4.7,2.6-9.5,2.6-14.6c0-5.8-0.2-11.9-0.6-18.7c-0.8-9.3-3.6-16.1-8.5-20.8
	c-5.8-5.5-12.5-11.5-20.6-18.2l-0.2-0.1c-4.5-3.9-8.3-9.3-11.4-15.8c-2.8-5.8-5.4-11.8-7.8-17.9l-0.1-0.3
	c-1.9-5.8-3.9-11.8-5.9-18.1c-2.7-1.1-5.4-2.7-8.1-4.6l-0.3-0.3c-3.2-2.6-6.6-6.2-10-10.7c-3.9-5-7-11.7-9.4-20.3
	c-2.6-8.6-3.4-16.6-2.6-23.8c0.8-7,2.2-12.8,4.2-17.9c1.8-4.9,4.3-9.6,7.7-14.2c-0.3-16.9,0.6-34,2.9-50.9
	c1.9-15,5.4-31.2,10.2-47.8c5-17.1,12.4-32.9,21.9-46.7l0.1-0.1c9.4-13.2,19.4-23.8,30.8-32.2c11.2-8.4,22.7-15,34.2-19.8
	c11.5-4.8,23.3-8.2,35-10.1c11.5-1.9,22.9-2.9,33.8-2.9c13.8,0,27.3,1.7,40,5c12.4,3.3,24.3,7.6,35.2,12.8c11,5.4,21,11.2,29.4,17.5
	c8.6,6.5,15.8,13.3,21.3,20.2c11.9,15.3,21,32.3,27,50.7c5.8,17.8,10,35,12.3,51c2.6,17.4,3.8,35,3.6,52.4c2.7,2.2,5,5.1,6.6,8.6
	c2.1,3.8,3.8,8.4,5.1,14.2c1.4,5.8,1.4,12.8,0.4,21.1v0.2c-1.5,10.6-3.9,18.9-7.3,25.3c-3.4,6.6-7.3,11.7-11.6,15.5
	c-3.8,3.4-7.7,5.9-11.8,7.6c-1.6,6.1-3.4,12.1-5.4,18.2l-0.1,0.3c-2.5,6.4-5.3,12.6-8.2,18.2c-3.4,6.6-7.2,11.7-11.6,15.5
	c-4.1,3.6-8.2,6.9-12.2,9.8c-3.5,2.4-6.3,4.7-8.6,7l-0.1,0.1c-2.2,2.2-4,4.8-5.5,7.9c-1.5,3.3-2.7,7.4-3.5,12.2l-0.1,0.2
	c-1.3,6.2-1.7,12.6-1.3,19c0.4,6.2,2,12.4,4.9,18.8c2.8,6.2,7.5,12.2,13.9,17.8c6.6,5.8,15.9,11.2,27.6,16
	c10.8,4.4,23.1,8.3,36.5,11.8c13.4,3.4,26.9,7.7,40,12.6c13.3,5.1,25.2,11.5,35.4,19.1c11,8.1,19,19,23.5,32.3v0.1
	c0.4,1.2,0.8,2.2,1.3,3.4c2.1,5.4,4.2,11,4.2,25.3c0,2.1,0.1,5.1,0.2,8.6c0.9,25,2.5,71.4-18.8,87.6c-12.8,9.8-45,17.7-95.8,23.4
	c-46.9,5.3-107.6,8.6-175.7,9.4C275.1,708.2,267.6,708.3,260,708.3L260,708.3z M170.9,480.3c-12.3,8.1-27,14.4-43.7,18.8
	c-16.5,4.3-31.4,8.7-45.5,13.6c-14,4.8-26.4,11.4-36.7,19.4c-9.6,7.6-15.5,18.7-18,34c-2.7,17.5-5.5,38-5.2,57.4
	c0.3,22.6,5,37.6,13.6,43.4c20.9,14.2,107.1,28.6,247.1,26.9c138.3-1.8,241.5-13.4,263-29.8c15.4-11.8,13.8-56.6,13.1-75.7
	c-0.2-3.6-0.2-6.7-0.2-9.1c0-11.6-1.5-15.5-3.3-20.2c-0.5-1.3-1-2.6-1.4-4c-3.7-10.6-9.8-19-18.5-25.4c-9.2-6.9-20-12.6-32-17.3
	c-12.6-4.7-25.5-8.8-38.4-12.1c-14-3.6-26.9-7.8-38.3-12.3c-13.4-5.4-23.7-11.5-31.6-18.5c-8-7-13.9-14.6-17.6-22.7
	c-3.6-8-5.6-15.8-6.2-23.8c-0.5-7.6,0-15.3,1.5-22.7c1-6.2,2.6-11.4,4.7-15.9c2.2-4.6,5-8.6,8.3-12c2.9-3,6.4-5.8,10.6-8.8
	c3.6-2.5,7.3-5.4,11-8.7c3-2.6,5.8-6.5,8.4-11.4c2.7-5.2,5.3-10.8,7.5-16.6c2.3-6.9,4.2-13.7,6-20.6l1-4l3.9-1.2c3.5-1,7-3,10.3-6.1
	c3-2.6,5.8-6.5,8.4-11.4c2.6-5,4.5-11.8,5.8-20.6c0.8-6.5,0.7-11.9-0.2-16c-1-4.4-2.2-7.8-3.7-10.4l-0.2-0.3
	c-1.2-2.4-2.7-4.2-4.7-5.3l-3.8-2.2l0.1-4.3c0.5-17.8-0.7-35.9-3.4-53.8c-2.2-15.3-6.2-31.6-11.8-48.7
	c-5.5-16.8-13.8-32.4-24.6-46.3c-4.7-5.9-11-11.8-18.6-17.5c-7.7-5.8-16.8-11.2-27-16.1c-10.1-4.8-21.1-8.8-32.7-11.9
	c-11.4-3-23.7-4.6-36.3-4.6c-10.2,0-20.7,0.9-31.5,2.6c-10.6,1.7-21.3,4.7-31.8,9.1c-10.5,4.3-21,10.3-31.1,18
	c-10.2,7.5-19.2,17-27.7,29c-8.6,12.6-15.4,26.9-19.9,42.6c-4.6,15.9-7.9,31.3-9.8,45.6c-2.2,17-3.1,34.2-2.7,51.2l0.1,2.6l-1.6,2
	c-3.3,4.2-5.6,8.2-7.1,12.5l-0.1,0.2c-1.6,3.9-2.6,8.6-3.3,14.3c-0.6,5.2,0.2,11.4,2.2,18.2c1.9,6.8,4.3,12,7,15.5
	c2.8,3.6,5.4,6.4,7.7,8.3c2.4,1.7,4.8,2.9,7.1,3.6l3.8,1l1.1,3.7c2.3,7.4,4.6,14.4,6.8,21c2.2,5.7,4.6,11.4,7.3,16.9
	c2.2,4.8,4.8,8.5,7.8,11c8.3,7,15.3,13.1,21.3,18.9c7.4,7.2,11.8,17.3,12.9,30.1v0.2c0.5,7.1,0.7,13.6,0.7,19.8
	c0,7-1.1,13.4-3.5,19.7c-2.5,6.5-6.6,12.7-12.5,19C188.9,467.9,181.2,473.9,170.9,480.3L170.9,480.3z M170.9,480.3"/>
<rect x="7.4" y="10.4" class="st1" width="565.9" height="698.9"/>
<path class="st10" d="M310,479l15.5-15.5c3.4-3.4,2.5-9.1-1.8-11.4l-24.3-12.6c-5.6-3-12.3-3-18,0l-24.3,12.6
	c-4.3,2.2-5.2,8-1.8,11.4l15.5,15.5c4.8,4.8,6.6,11.9,4.6,18.5L240,613.9c-2.5,8.2-0.6,17.1,4.9,23.8l37.4,44.5
	c4.4,5.2,12.4,5.2,16.8,0l37.4-44.5c5.5-6.6,7.4-15.5,4.9-23.8l-35.6-116.4C303.4,491,305.2,483.8,310,479L310,479z M361.1,285.1
	c11.4,0,19.5,11,16.1,21.8c-10.6,34.5-45.4,59.8-86.9,59.8c-41.4,0-76.2-25.4-86.9-59.8c-3.3-10.9,4.7-21.8,16.1-21.8H361.1z
	 M361.1,285.1"/>
<path class="st11" d="M184.3,185.8c-7.9,0-14.4-6.4-14.4-14.4c0-2.8,0.6-70,70.9-107.8c7-3.8,15.8-1.1,19.5,5.8
	c3.8,7,1.1,15.8-5.8,19.5c-55.2,29.7-55.8,81.8-55.8,82.3C198.8,179.3,192.3,185.8,184.3,185.8C184.4,185.8,184.4,185.8,184.3,185.8
	L184.3,185.8z M175.9,242.2c-7.8-1-13.5-8.1-12.6-16l1-8.3c1-7.8,8.1-13.5,16-12.6c7.8,1,13.5,8.1,12.6,16l-1,8.3
	C191,237.5,183.9,243.1,175.9,242.2L175.9,242.2z M175.9,242.2"/>
</svg>
