<?xml version="1.0" encoding="utf-8"?>
<!-- Generator: Adobe Illustrator 21.0.0, SVG Export Plug-In . SVG Version: 6.00 Build 0)  -->
<svg version="1.1" id="图层_1" xmlns="http://www.w3.org/2000/svg" xmlns:xlink="http://www.w3.org/1999/xlink" x="0px" y="0px"
	 viewBox="0 0 612 700" style="enable-background:new 0 0 612 700;" xml:space="preserve">
<style type="text/css">
	.st0{fill:#1E88E5;}
	.st1{fill:#2196F3;}
	.st2{fill:none;}
	.st3{fill:#42A5F5;}
	.st4{fill:#64B5F6;}
	.st5{fill:#90CAF9;}
	.st6{fill:#A1D9FF;}
	.st7{fill:#B3E4FF;}
	.st8{fill:#C0EFFF;}
	.st9{fill:#FFFFFF;}
	.st10{fill:#FFFFFF;stroke:#FFFFFF;stroke-width:5;stroke-miterlimit:10;}
</style>
<path class="st0" d="M598.1,345.4V197.2c0-27.9-19.5-52.8-48.6-61.9l-64.3-24C454.9,100,426.4,85,400.6,66.7l-67.7-48
	c-15.4-12.2-38.2-12.2-53.6,0l-67.8,47.9c-25.8,18.2-54.2,33.3-84.6,44.6l-64.3,24c-29.1,9.1-48.6,34-48.6,61.9v148.2
	c0,98.6,51.1,191.4,138,250.6l126.8,86.4c16.2,11,38.3,11,54.5,0l126.8-86.4C547,536.8,598.1,443.9,598.1,345.4L598.1,345.4z
	 M598.1,345.4"/>
<path class="st1" d="M14.1,197.2v3c10.7-22.1,24-42.6,39.4-61.4C29.6,149.9,14.1,172.3,14.1,197.2L14.1,197.2z M598.1,197.2
	c0-27.9-19.5-52.8-48.6-61.9l-34.8-13c46.2,48.5,76.6,112,83.4,182.5L598.1,197.2z M352.3,32.5l-19.4-13.8
	c-15.4-12.2-38.2-12.2-53.6,0l-12.2,8.6c8-0.6,16.2-1,24.4-1C312.3,26.5,332.7,28.6,352.3,32.5L352.3,32.5z M291.5,642.6
	c-31.6,0-62.1-4.7-90.7-13.6l78.2,53.3c16.2,11,38.3,11,54.5,0l126.8-86.4C534,545.6,582,471,594.7,389.3
	C568.9,533.4,442.9,642.6,291.5,642.6L291.5,642.6z M291.5,642.6"/>
<rect x="14" y="9.7" class="st2" width="584.9" height="681.8"/>
<path class="st3" d="M593.7,389.3c2.2-14.5,3.4-29.1,3.4-43.9v-40.6c-6.8-70.5-37.3-133.9-83.4-182.5l-29.5-11
	c-30.2-11.3-58.7-26.3-84.6-44.6l-48.4-34.2c-19.7-3.9-40-6-60.9-6c-8.2,0-16.3,0.3-24.4,1l-47,33.2c18.7-4.2,38.2-6.4,58.2-6.4
	c146.9,0,265.9,119,265.9,265.9c0,146.9-119,265.8-265.8,265.8c-136.6,0-249.2-103.1-264.2-235.8c1.6,96.8,52.5,187.6,137.9,245.8
	l48.6,33.1c28.7,8.8,59.2,13.6,90.7,13.6C441.9,642.6,567.9,533.4,593.7,389.3L593.7,389.3z M102.1,120.2l-40.3,15
	c-3.2,1-6.2,2.2-9.2,3.6c-15.4,18.7-28.7,39.4-39.4,61.4v90.2C20.6,222.7,53.5,162.8,102.1,120.2L102.1,120.2z M102.1,120.2"/>
<path class="st4" d="M278.3,585.9c146.9,0,265.9-119,265.9-265.9c0-146.9-119-265.8-265.9-265.8c-20,0-39.4,2.2-58.2,6.4l-8.6,6.1
	c-25.8,18.2-54.2,33.3-84.6,44.6l-24,9c-48.6,42.6-81.4,102.6-89,170.2v55c0,1.6,0,3.2,0.1,4.8C29.1,482.8,141.7,585.9,278.3,585.9
	L278.3,585.9z M265.2,81.9c123.5,0,223.7,100.2,223.7,223.7S388.7,529.3,265.2,529.3c-123.5,0-223.7-100.2-223.7-223.7
	S141.7,81.9,265.2,81.9L265.2,81.9z M265.2,81.9"/>
<path class="st5" d="M265.2,529.3c123.5,0,223.7-100.2,223.7-223.7S388.7,81.9,265.2,81.9c-123.5,0-223.7,100.2-223.7,223.7
	S141.7,529.3,265.2,529.3L265.2,529.3z M252.1,109.7c100.2,0,181.4,81.2,181.4,181.4c0,100.2-81.2,181.4-181.4,181.4
	c-100.2,0-181.4-81.2-181.4-181.4C70.7,190.9,151.9,109.7,252.1,109.7L252.1,109.7z M252.1,109.7"/>
<path class="st6" d="M252.1,472.6c100.2,0,181.4-81.2,181.4-181.4c0-100.2-81.2-181.4-181.4-181.4c-100.2,0-181.4,81.2-181.4,181.4
	C70.7,391.4,151.9,472.6,252.1,472.6L252.1,472.6z M239,137.4c76.9,0,139.2,62.3,139.2,139.2c0,76.9-62.3,139.2-139.2,139.2
	c-76.9,0-139.2-62.3-139.2-139.2C99.8,199.7,162.1,137.4,239,137.4L239,137.4z M239,137.4"/>
<path class="st7" d="M239,415.8c76.9,0,139.2-62.3,139.2-139.2c0-76.9-62.3-139.2-139.2-139.2c-76.9,0-139.2,62.3-139.2,139.2
	C99.8,353.5,162.1,415.8,239,415.8L239,415.8z M225.9,165.1c53.6,0,97,43.4,97,97c0,53.6-43.4,97-97,97c-53.6,0-97-43.4-97-97
	C128.8,208.6,172.3,165.1,225.9,165.1L225.9,165.1z M225.9,165.1"/>
<path class="st8" d="M128.8,262.2c0,53.6,43.4,97,97,97s97-43.4,97-97c0-53.6-43.4-97-97-97S128.8,208.6,128.8,262.2L128.8,262.2z
	 M128.8,262.2"/>
<path class="st0" d="M306.1,24.1c6.6,0,13,2.2,17.8,6l0.3,0.2l0.3,0.2l67.8,47.9c26.8,19,56.4,34.6,87.8,46.3l64.3,24l0.3,0.2
	l0.4,0.1c23,7.3,38.6,26.6,38.6,48.2v148.2c0,23.1-3,46.2-8.9,68.8c-5.8,22.2-14.5,43.8-25.8,64.3c-11.3,20.5-25.2,39.8-41.4,57.4
	c-16.4,17.9-35.1,34.1-55.7,48.1l-126.8,86.3c-5.4,3.7-12.2,5.8-19.1,5.8c-6.9,0-13.7-2.1-19.1-5.8L160.3,584
	c-20.6-14-39.3-30.2-55.7-48.1c-16.2-17.6-30.1-37-41.4-57.4c-11.3-20.5-19.9-42.1-25.8-64.3c-5.9-22.5-8.9-45.6-8.9-68.8V197.2
	c0-21.6,15.5-41,38.6-48.2l0.4-0.1l0.3-0.2l64.3-24c31.4-11.8,61-27.3,87.8-46.3l67.8-47.9l0.3-0.2l0.3-0.2
	C293.1,26.2,299.5,24.1,306.1,24.1 M306.1,9.7c-9.5,0-19.1,3-26.8,9.1l-67.8,47.9C185.7,85,157.3,100,127,111.3l-64.3,24
	c-29.1,9.1-48.6,34-48.6,61.9v148.2c0,98.6,51.1,191.4,138,250.6l126.8,86.4c8.1,5.5,17.7,8.2,27.2,8.2c9.6,0,19.2-2.7,27.2-8.2
	L460,595.9c86.9-59.2,138-152,138-250.6V197.2c0-27.9-19.5-52.8-48.6-61.9l-64.3-24C454.8,100,426.3,85,400.5,66.7l-67.6-48
	C325.2,12.7,315.7,9.7,306.1,9.7L306.1,9.7z M306.1,9.7"/>
<rect x="14" y="9.7" class="st2" width="584.9" height="681.8"/>
<path class="st9" d="M154.6,173.5c-5.8,0-11.3-3.5-13.4-9.3c-2.8-7.4,0.9-15.8,8.3-18.6c54.8-21,88.4-48.2,88.7-48.5
	c6.2-5,15.2-4.2,20.2,2c5,6.2,4.2,15.2-2,20.2c-1.5,1.2-37.6,30.6-96.7,53.1C158,173.2,156.3,173.5,154.6,173.5L154.6,173.5z
	 M154.6,173.5"/>
<path class="st9" d="M102.3,192.9c-5.8,0-11.4-3.6-13.5-9.4c-2.8-7.4,1-15.8,8.5-18.5l8.4-3.1c7.4-2.8,15.8,1,18.5,8.5
	c2.8,7.4-1,15.8-8.5,18.5l-8.4,3.1C105.5,192.6,103.9,192.9,102.3,192.9L102.3,192.9z M102.3,192.9"/>
<path class="st10" d="M280.1,458.6c-6.2,0-12.5-2.3-17.3-7l-86.3-84.3c-9.6-9.4-9.6-24.5,0-33.8c9.6-9.4,25.1-9.4,34.6,0l69,67.4
	l139.5-136.2c9.6-9.4,25.1-9.4,34.6,0c9.6,9.4,9.6,24.5,0,33.8l-156.8,153C292.7,456.3,286.5,458.6,280.1,458.6L280.1,458.6z
	 M280.1,458.6"/>
</svg>
