<?xml version="1.0" encoding="utf-8"?>
<!-- Generator: Adobe Illustrator 21.0.0, SVG Export Plug-In . SVG Version: 6.00 Build 0)  -->
<svg version="1.1" id="图层_1" xmlns="http://www.w3.org/2000/svg" xmlns:xlink="http://www.w3.org/1999/xlink" x="0px" y="0px"
	 viewBox="0 0 912.9 792" style="enable-background:new 0 0 912.9 792;" xml:space="preserve">
<style type="text/css">
	.st0{fill:#FFA86E;}
</style>
<path class="st0" d="M128.4,165.2h375.4c27.9,0,50.5-22.7,50.5-50.6V75.6c0-28.1-22.6-50.6-50.5-50.6H128.4
	c-27.9,0-50.6,22.7-50.6,50.6v39C77.9,142.7,100.5,165.2,128.4,165.2L128.4,165.2z M128.4,165.2"/>
<path class="st0" d="M439.5,347.4c17.1-19.9,36.9-37.4,58.9-52v-37.6c0-28.1-22.6-50.6-50.5-50.6H72.4c-27.9,0-50.5,22.7-50.5,50.6
	v39c0,28.1,22.6,50.6,50.5,50.6L439.5,347.4L439.5,347.4z M439.5,347.4"/>
<path class="st0" d="M77.9,440v39c0,28.1,22.6,50.6,50.5,50.6h243.8c0-51.1,13.6-98.9,37.5-140.1H128.4
	C100.5,389.4,77.9,412.1,77.9,440L77.9,440z M77.9,440"/>
<path class="st0" d="M100.4,571.7c-27.9,0-50.5,22.7-50.5,50.6v39c0,28.1,22.6,50.6,50.5,50.6h339.1c-33.3-39-56.2-87.1-64.2-140.2
	H100.4z M100.4,571.7"/>
<path class="st0" d="M652.5,291.3c-131.6,0-238.3,106.7-238.3,238.3c0,131.6,106.7,238.2,238.3,238.2
	c131.6,0,238.3-106.7,238.3-238.2C890.8,398,784.1,291.3,652.5,291.3L652.5,291.3z M747.6,568.7c10.4,0,18.7,7.9,18.7,17.6
	c0,9.8-8.4,17.6-18.7,17.6h-67.3v38.3c0,13-11.2,23.6-25,23.6c-13.8,0-25-10.6-25-23.6V604H563c-10.4,0-18.7-7.9-18.7-17.6
	c0-9.7,8.4-17.6,18.7-17.6h67.3v-25.5H563c-10.4,0-18.7-7.9-18.7-17.6c0-9.7,8.4-17.6,18.7-17.6h67.3v-19.8l-67.7-64.9
	c-8.5-8.1-8.3-21.1,0.3-29c8.6-7.9,22.4-7.8,30.8,0.3l61.6,59l61.6-59c8.4-8.1,22.2-8.2,30.9-0.3c8.6,7.9,8.7,21,0.3,29l-67.7,64.9
	v19.8h67.3c10.4,0,18.7,7.9,18.7,17.6c0,9.8-8.4,17.6-18.7,17.6h-67.3v25.5H747.6z M747.6,568.7"/>
</svg>
