<?xml version="1.0" encoding="utf-8"?>
<!-- Generator: Adobe Illustrator 21.0.0, SVG Export Plug-In . SVG Version: 6.00 Build 0)  -->
<svg version="1.1" id="图层_1" xmlns="http://www.w3.org/2000/svg" xmlns:xlink="http://www.w3.org/1999/xlink" x="0px" y="0px"
	 viewBox="0 0 266.9 166" style="enable-background:new 0 0 266.9 166;" xml:space="preserve">
<style type="text/css">
	.st0{opacity:0.8;fill:url(#SVGID_1_);}
	.st1{fill:url(#SVGID_2_);}
	.st2{fill:url(#SVGID_3_);}
	.st3{fill:#FFE3E3;}
</style>
<linearGradient id="SVGID_1_" gradientUnits="userSpaceOnUse" x1="204.5233" y1="129.9227" x2="185.8397" y2="106.9067">
	<stop  offset="0" style="stop-color:#FFB7B3"/>
	<stop  offset="1" style="stop-color:#EB5648"/>
</linearGradient>
<polygon class="st0" points="234,78.4 126,141.1 156.8,158.9 264.8,96.1 "/>
<g>
	<linearGradient id="SVGID_2_" gradientUnits="userSpaceOnUse" x1="37.8894" y1="-9.2031" x2="171.6376" y2="120.9305">
		<stop  offset="0" style="stop-color:#FFB7B3"/>
		<stop  offset="1" style="stop-color:#EB5648"/>
	</linearGradient>
	<path class="st1" d="M243.6,80.5C243.6,80.5,243.6,80.5,243.6,80.5c-1,0.2-1.9,0.2-3,0.2c0,0,0,0-0.1,0c-1-0.1-2.1-0.3-3.2-0.7
		c0,0,0,0-0.1,0c-1.1-0.4-2.3-0.9-3.5-1.6L110.1,7.1L2.1,69.9l123.7,71.3c0.2,0.1,0.4,0.2,0.6,0.3c0.2,0.1,0.5,0.3,0.7,0.4
		c0.2,0.1,0.5,0.2,0.7,0.3c0.2,0.1,0.5,0.2,0.7,0.3c0.2,0.1,0.5,0.2,0.7,0.3c0,0,0.1,0,0.1,0c0,0,0,0,0.1,0c0.2,0.1,0.3,0.1,0.5,0.2
		c0.2,0.1,0.5,0.1,0.7,0.2c0.2,0.1,0.5,0.1,0.7,0.2c0.3,0.1,0.5,0.1,0.8,0.1c0.2,0,0.4,0,0.5,0.1c0,0,0,0,0.1,0c0.1,0,0.1,0,0.2,0
		c0.3,0,0.6,0,0.8,0c0.3,0,0.6,0,0.9,0c0.3,0,0.7-0.1,1-0.1c0,0,0,0,0,0c0,0,0,0,0,0c0.4-0.1,0.8-0.2,1.2-0.3c0.5-0.2,1-0.4,1.4-0.7
		l108-62.8C245.4,80,244.5,80.3,243.6,80.5z"/>
	<linearGradient id="SVGID_3_" gradientUnits="userSpaceOnUse" x1="186.7098" y1="87.0672" x2="200.0137" y2="110.5901">
		<stop  offset="0" style="stop-color:#FFB7B3"/>
		<stop  offset="1" style="stop-color:#EB5648"/>
	</linearGradient>
	<path class="st2" d="M251.4,67.7c0-0.3,0-0.6,0-0.8c0-0.3,0-0.6-0.1-0.8c0-0.3-0.1-0.6-0.1-0.9c0-0.3-0.1-0.6-0.1-0.9
		c0,0,0-0.1,0-0.1c0,0,0,0,0-0.1c0-0.2-0.1-0.5-0.1-0.7c-0.1-0.3-0.1-0.6-0.2-0.9c-0.1-0.3-0.1-0.6-0.2-0.9
		c-0.1-0.3-0.2-0.6-0.2-0.9c-0.1-0.3-0.2-0.6-0.3-0.9c0,0,0-0.1,0-0.1c0,0,0,0,0,0c-0.1-0.2-0.1-0.5-0.2-0.7
		c-0.1-0.3-0.2-0.6-0.3-0.9c-0.1-0.3-0.2-0.6-0.3-0.8c-0.1-0.3-0.2-0.5-0.3-0.8c-0.1-0.3-0.2-0.5-0.3-0.8c-0.1-0.2-0.2-0.3-0.2-0.5
		c0,0,0,0,0-0.1c0-0.1-0.1-0.2-0.1-0.2c-0.1-0.3-0.3-0.6-0.4-0.8c-0.2-0.3-0.3-0.6-0.5-1c-0.2-0.5-0.5-0.9-0.8-1.4
		c-0.2-0.3-0.4-0.7-0.6-1l-108,62.8c0.9,1.4,1.7,2.9,2.4,4.4c0,0,0,0,0,0.1c0.7,1.5,1.3,3,1.7,4.5c0,0,0,0,0,0
		c0.5,1.5,0.8,3,1.1,4.5c0,0,0,0,0,0.1c0.2,1.5,0.4,2.9,0.4,4.3c0,1.4-0.1,2.6-0.4,3.8c0,0,0,0.1,0,0.1c-0.2,1.1-0.6,2.2-1,3.1
		c0,0,0,0,0,0c-0.4,0.8-0.8,1.4-1.3,2c-0.2,0.2-0.3,0.4-0.5,0.6c-0.6,0.6-1.2,1.2-1.9,1.6l108-62.8c0.7-0.4,1.3-1,1.9-1.6
		c0.2-0.2,0.3-0.4,0.5-0.6c0.2-0.3,0.5-0.5,0.6-0.8c0.2-0.4,0.5-0.8,0.7-1.2c0,0,0,0,0,0c0,0,0,0,0,0c0.1-0.3,0.3-0.6,0.4-0.9
		c0.1-0.3,0.2-0.6,0.3-0.9c0.1-0.3,0.2-0.6,0.2-0.9c0-0.1,0-0.2,0.1-0.4c0,0,0-0.1,0-0.1c0-0.1,0.1-0.2,0.1-0.4
		c0-0.3,0.1-0.6,0.1-0.8c0-0.3,0.1-0.6,0.1-0.8c0-0.3,0-0.5,0.1-0.8c0-0.3,0-0.6,0-0.8c0,0,0,0,0-0.1
		C251.4,68.2,251.4,67.9,251.4,67.7z"/>
</g>
<g>
	<polygon class="st3" points="114.3,23.3 40.8,65.8 46.5,69.1 120,26.6 	"/>
	<polygon class="st3" points="125.1,29.5 66.7,63.2 68.5,64.3 127,30.7 	"/>
	<polygon class="st3" points="130.6,32.6 72.1,66.3 74,67.5 132.5,33.8 	"/>
	<polygon class="st3" points="136.1,35.8 77.6,69.5 79.4,70.6 137.9,37 	"/>
</g>
<g>
	<polygon class="st3" points="157.4,49.6 83.9,92 89.6,95.3 163.1,52.9 	"/>
	<polygon class="st3" points="168.3,55.8 109.8,89.4 111.6,90.6 170.1,56.9 	"/>
	<polygon class="st3" points="173.7,58.9 115.2,92.6 117.1,93.7 175.6,60.1 	"/>
	<polygon class="st3" points="179.2,62.1 120.7,95.7 122.5,96.9 181,63.2 	"/>
</g>
</svg>
