<?xml version="1.0" encoding="utf-8"?>
<!-- Generator: Adobe Illustrator 21.0.0, SVG Export Plug-In . SVG Version: 6.00 Build 0)  -->
<svg version="1.1" id="图层_1" xmlns="http://www.w3.org/2000/svg" xmlns:xlink="http://www.w3.org/1999/xlink" x="0px" y="0px"
	 viewBox="0 0 266.9 166" style="enable-background:new 0 0 266.9 166;" xml:space="preserve">
<style type="text/css">
	.st0{fill:url(#SVGID_1_);}
	.st1{fill:url(#SVGID_2_);}
	.st2{fill:url(#SVGID_3_);}
	.st3{fill:#EAEAEA;}
</style>
<linearGradient id="SVGID_1_" gradientUnits="userSpaceOnUse" x1="204.427" y1="129.8203" x2="185.7435" y2="106.8044">
	<stop  offset="0" style="stop-color:#DBDBDB"/>
	<stop  offset="1" style="stop-color:#828282"/>
</linearGradient>
<polygon class="st0" points="233.9,78.3 125.9,141 156.7,158.8 264.7,96 "/>
<g>
	<linearGradient id="SVGID_2_" gradientUnits="userSpaceOnUse" x1="2" y1="75.2014" x2="246.0813" y2="75.2014">
		<stop  offset="0" style="stop-color:#DBDBDB"/>
		<stop  offset="1" style="stop-color:#828282"/>
	</linearGradient>
	<path class="st1" d="M243.5,80.4C243.5,80.4,243.5,80.4,243.5,80.4c-1,0.2-1.9,0.2-3,0.2c0,0,0,0-0.1,0c-1-0.1-2.1-0.3-3.2-0.7
		c0,0,0,0-0.1,0c-1.1-0.4-2.3-0.9-3.5-1.6L110,7L2,69.8L125.7,141c0.2,0.1,0.4,0.2,0.6,0.3c0.2,0.1,0.5,0.3,0.7,0.4
		c0.2,0.1,0.5,0.2,0.7,0.3c0.2,0.1,0.5,0.2,0.7,0.3c0.2,0.1,0.5,0.2,0.7,0.3c0,0,0.1,0,0.1,0c0,0,0,0,0.1,0c0.2,0.1,0.3,0.1,0.5,0.2
		c0.2,0.1,0.5,0.1,0.7,0.2c0.2,0.1,0.5,0.1,0.7,0.2c0.3,0.1,0.5,0.1,0.8,0.1c0.2,0,0.4,0,0.5,0.1c0,0,0,0,0.1,0c0.1,0,0.1,0,0.2,0
		c0.3,0,0.6,0,0.8,0c0.3,0,0.6,0,0.9,0c0.3,0,0.7-0.1,1-0.1c0,0,0,0,0,0c0,0,0,0,0,0c0.4-0.1,0.8-0.2,1.2-0.3c0.5-0.2,1-0.4,1.4-0.7
		l108-62.8C245.3,79.9,244.4,80.2,243.5,80.4z"/>
	<linearGradient id="SVGID_3_" gradientUnits="userSpaceOnUse" x1="137.7068" y1="96.4187" x2="251.3056" y2="96.4187">
		<stop  offset="0" style="stop-color:#DBDBDB"/>
		<stop  offset="1" style="stop-color:#828282"/>
	</linearGradient>
	<path class="st2" d="M251.3,67.6c0-0.3,0-0.6,0-0.8c0-0.3,0-0.6-0.1-0.8c0-0.3-0.1-0.6-0.1-0.9c0-0.3-0.1-0.6-0.1-0.9
		c0,0,0-0.1,0-0.1c0,0,0,0,0-0.1c0-0.2-0.1-0.5-0.1-0.7c-0.1-0.3-0.1-0.6-0.2-0.9c-0.1-0.3-0.1-0.6-0.2-0.9
		c-0.1-0.3-0.2-0.6-0.2-0.9c-0.1-0.3-0.2-0.6-0.3-0.9c0,0,0-0.1,0-0.1c0,0,0,0,0,0c-0.1-0.2-0.1-0.5-0.2-0.7
		c-0.1-0.3-0.2-0.6-0.3-0.9c-0.1-0.3-0.2-0.6-0.3-0.8c-0.1-0.3-0.2-0.5-0.3-0.8c-0.1-0.3-0.2-0.5-0.3-0.8c-0.1-0.2-0.2-0.3-0.2-0.5
		c0,0,0,0,0-0.1c0-0.1-0.1-0.2-0.1-0.2c-0.1-0.3-0.3-0.6-0.4-0.8c-0.2-0.3-0.3-0.6-0.5-1c-0.2-0.5-0.5-0.9-0.8-1.4
		c-0.2-0.3-0.4-0.7-0.6-1l-108,62.8c0.9,1.4,1.7,2.9,2.4,4.4c0,0,0,0,0,0.1c0.7,1.5,1.3,3,1.7,4.5c0,0,0,0,0,0
		c0.5,1.5,0.8,3,1.1,4.5c0,0,0,0,0,0.1c0.2,1.5,0.4,2.9,0.4,4.3c0,1.4-0.1,2.6-0.4,3.8c0,0,0,0.1,0,0.1c-0.2,1.1-0.6,2.2-1,3.1
		c0,0,0,0,0,0c-0.4,0.8-0.8,1.4-1.3,2c-0.2,0.2-0.3,0.4-0.5,0.6c-0.6,0.6-1.2,1.2-1.9,1.6l108-62.8c0.7-0.4,1.3-1,1.9-1.6
		c0.2-0.2,0.3-0.4,0.5-0.6c0.2-0.3,0.4-0.5,0.6-0.8c0.2-0.4,0.5-0.8,0.7-1.2c0,0,0,0,0,0c0,0,0,0,0,0c0.1-0.3,0.3-0.6,0.4-0.9
		c0.1-0.3,0.2-0.6,0.3-0.9c0.1-0.3,0.2-0.6,0.2-0.9c0-0.1,0-0.2,0.1-0.4c0,0,0-0.1,0-0.1c0-0.1,0.1-0.2,0.1-0.4
		c0-0.3,0.1-0.6,0.1-0.8c0-0.3,0.1-0.6,0.1-0.8c0-0.3,0-0.5,0.1-0.8c0-0.3,0-0.6,0-0.8c0,0,0,0,0-0.1
		C251.3,68.1,251.3,67.8,251.3,67.6z"/>
</g>
<g>
	<polygon class="st3" points="114.2,23.2 40.7,65.7 46.4,69 119.9,26.5 	"/>
	<polygon class="st3" points="125,29.4 66.6,63.1 68.4,64.2 126.9,30.6 	"/>
	<polygon class="st3" points="130.5,32.5 72,66.2 73.9,67.4 132.4,33.7 	"/>
	<polygon class="st3" points="136,35.7 77.5,69.4 79.3,70.5 137.8,36.9 	"/>
</g>
<g>
	<polygon class="st3" points="157.4,49.5 83.8,91.9 89.5,95.2 163,52.8 	"/>
	<polygon class="st3" points="168.2,55.7 109.7,89.3 111.5,90.5 170,56.8 	"/>
	<polygon class="st3" points="173.6,58.8 115.1,92.5 117,93.6 175.5,60 	"/>
	<polygon class="st3" points="179.1,62 120.6,95.6 122.5,96.8 181,63.1 	"/>
</g>
</svg>
