<?xml version="1.0" encoding="utf-8"?>
<!-- Generator: Adobe Illustrator 21.0.0, SVG Export Plug-In . SVG Version: 6.00 Build 0)  -->
<svg version="1.1" id="图层_1" xmlns="http://www.w3.org/2000/svg" xmlns:xlink="http://www.w3.org/1999/xlink" x="0px" y="0px"
	 viewBox="0 0 646.2 618" style="enable-background:new 0 0 646.2 618;" xml:space="preserve">
<style type="text/css">
	.st0{fill:none;}
	.st1{opacity:0.8;fill:url(#SVGID_1_);}
	.st2{fill:#FFDCDC;}
	.st3{fill:url(#SVGID_2_);}
	.st4{fill:url(#SVGID_3_);}
	.st5{opacity:0.8;}
	.st6{fill:url(#SVGID_4_);}
	.st7{fill:url(#SVGID_5_);}
	.st8{fill:url(#SVGID_6_);}
	.st9{fill:#FFE3E3;}
	.st10{fill:url(#SVGID_7_);}
	.st11{fill:#EB5648;}
	.st12{fill:url(#SVGID_8_);}
	.st13{fill:url(#SVGID_9_);}
	.st14{fill:url(#SVGID_10_);}
	.st15{fill:url(#SVGID_11_);}
	.st16{fill:url(#SVGID_12_);}
	.st17{fill:url(#SVGID_13_);}
	.st18{fill:url(#SVGID_14_);}
	.st19{fill:url(#SVGID_15_);}
	.st20{fill:url(#SVGID_16_);}
	.st21{fill:url(#SVGID_17_);}
	.st22{opacity:0.75;fill:url(#SVGID_18_);}
	.st23{opacity:0.75;fill:url(#SVGID_19_);}
	.st24{opacity:0.75;fill:url(#SVGID_20_);}
	.st25{opacity:0.75;fill:url(#SVGID_21_);}
	.st26{opacity:0.75;fill:url(#SVGID_22_);}
	.st27{opacity:0.75;fill:url(#SVGID_23_);}
	.st28{fill:url(#SVGID_24_);}
	.st29{fill:url(#SVGID_25_);}
	.st30{fill:url(#SVGID_26_);}
	.st31{fill:url(#SVGID_27_);}
	.st32{fill:url(#SVGID_28_);}
	.st33{fill:#80FFFA;}
	.st34{fill:#5985B8;}
	.st35{fill:#3E5D80;}
	.st36{fill:#FFC9A4;}
	.st37{fill:#EA8744;}
	.st38{fill:#253553;}
	.st39{fill:url(#SVGID_29_);}
	.st40{fill:#F6C7CD;}
	.st41{fill:url(#SVGID_30_);}
	.st42{fill:#273856;}
	.st43{fill:url(#SVGID_31_);}
	.st44{fill:url(#SVGID_32_);}
	.st45{fill:#F5D1B5;}
	.st46{fill:#2A292D;}
	.st47{fill:#374961;}
	.st48{fill:url(#SVGID_33_);}
	.st49{fill:#F5C7AB;}
	.st50{fill:url(#SVGID_34_);}
	.st51{fill:url(#SVGID_35_);}
	.st52{fill:url(#SVGID_36_);}
	.st53{fill:url(#SVGID_37_);}
	.st54{fill:url(#SVGID_38_);}
	.st55{fill:url(#SVGID_39_);}
	.st56{fill:url(#SVGID_40_);}
	.st57{fill:url(#SVGID_41_);}
	.st58{opacity:0.46;}
	.st59{fill:url(#SVGID_42_);}
	.st60{fill:url(#SVGID_43_);}
	.st61{fill:url(#SVGID_44_);}
	.st62{fill-rule:evenodd;clip-rule:evenodd;fill:#FFFFFF;}
</style>
<g>
	<path class="st0" d="M250.3,581.9l0.9-25.6c15.8,9.9,38.1,13.7,58.5,11.3l-0.9,25.6C288.4,595.6,266.1,591.8,250.3,581.9z"/>
	<linearGradient id="SVGID_1_" gradientUnits="userSpaceOnUse" x1="323.3861" y1="380.4116" x2="323.3861" y2="610.0403">
		<stop  offset="0" style="stop-color:#FFB7B3"/>
		<stop  offset="1" style="stop-color:#EB5648"/>
	</linearGradient>
	<path class="st1" d="M637.5,381.8c0,0.4-0.1,0.9-0.2,1.3c0,0.1,0,0.2-0.1,0.3c-0.1,0.5-0.2,1.1-0.4,1.6c0,0.1-0.1,0.3-0.1,0.4
		c-0.1,0.4-0.2,0.8-0.4,1.2c-0.1,0.2-0.2,0.4-0.2,0.6c-0.1,0.3-0.3,0.7-0.4,1c-0.1,0.2-0.2,0.4-0.3,0.6c-0.2,0.4-0.4,0.7-0.6,1.1
		c-0.1,0.2-0.2,0.4-0.3,0.6c-0.2,0.4-0.4,0.7-0.7,1.1c-0.1,0.2-0.2,0.3-0.3,0.5c-0.4,0.6-0.8,1.2-1.3,1.7c-0.1,0.1-0.2,0.2-0.3,0.3
		c-0.4,0.5-0.8,0.9-1.2,1.4c-0.2,0.2-0.4,0.4-0.6,0.6c-0.2,0.2-0.4,0.4-0.6,0.6c-0.2,0.2-0.5,0.5-0.8,0.7c-0.2,0.2-0.4,0.4-0.7,0.6
		c-0.3,0.2-0.6,0.5-0.8,0.7c-0.2,0.2-0.5,0.4-0.7,0.5c-0.3,0.2-0.6,0.4-0.9,0.7c-0.2,0.2-0.5,0.4-0.7,0.5c-0.4,0.3-0.7,0.5-1.1,0.7
		c-0.2,0.1-0.4,0.2-0.6,0.4c-0.6,0.4-1.2,0.7-1.8,1.1L320.8,573.3c-1,0.6-2.1,1.1-3.2,1.7c-0.3,0.2-0.7,0.3-1.1,0.5
		c-0.8,0.4-1.6,0.7-2.4,1c-0.4,0.2-0.8,0.3-1.2,0.5c-0.8,0.3-1.6,0.6-2.4,0.9c-0.4,0.1-0.8,0.3-1.2,0.4c-1,0.3-2.1,0.6-3.1,0.9
		c-0.2,0.1-0.4,0.1-0.6,0.2c-0.1,0-0.2,0.1-0.4,0.1c-0.9,0.2-1.8,0.4-2.7,0.6c-0.3,0.1-0.5,0.1-0.8,0.2c-1,0.2-1.9,0.4-2.9,0.5
		c0,0-0.1,0-0.1,0c-1.1,0.2-2.3,0.4-3.5,0.5c-1.1,0.1-2.1,0.2-3.2,0.3c-0.4,0-0.7,0-1.1,0.1c-0.7,0.1-1.5,0.1-2.2,0.1
		c-0.4,0-0.9,0-1.3,0c-0.7,0-1.3,0-2,0c-0.5,0-0.9,0-1.4,0c-0.6,0-1.3,0-1.9,0c-0.4,0-0.8,0-1.3,0c-0.7,0-1.3-0.1-2-0.1
		c-0.4,0-0.8-0.1-1.3-0.1c-0.7-0.1-1.4-0.1-2.1-0.2c-0.4,0-0.7-0.1-1.1-0.1c-0.8-0.1-1.7-0.2-2.5-0.3c-0.2,0-0.4-0.1-0.6-0.1
		c-1.1-0.2-2.1-0.3-3.2-0.5c-0.3-0.1-0.6-0.1-0.8-0.2c-0.8-0.1-1.5-0.3-2.3-0.5c-0.5-0.1-0.9-0.2-1.4-0.3c-0.6-0.1-1.2-0.3-1.8-0.4
		c-0.5-0.1-0.9-0.3-1.4-0.4c-0.6-0.2-1.1-0.3-1.6-0.5c-0.7-0.2-1.4-0.5-2.1-0.7c-0.4-0.1-0.8-0.3-1.2-0.4c-0.8-0.3-1.6-0.6-2.4-0.9
		c-0.3-0.1-0.6-0.2-0.9-0.3c-0.2-0.1-0.3-0.1-0.5-0.2c-0.7-0.3-1.4-0.6-2.2-1c-0.3-0.1-0.6-0.3-0.8-0.4c-0.6-0.3-1.2-0.6-1.8-0.9
		c-0.3-0.1-0.5-0.3-0.8-0.4c-0.8-0.5-1.6-0.9-2.4-1.4L25.8,434.5c-10.8-6.8-16-15.4-15.7-23.9l-1,28.2c-0.3,8.5,4.9,17.1,15.7,23.9
		l217.9,136.8c0.8,0.5,1.6,1,2.4,1.4c0.2,0.1,0.5,0.3,0.8,0.4c0.6,0.3,1.2,0.6,1.8,0.9c0.3,0.1,0.5,0.3,0.8,0.4
		c0.7,0.3,1.4,0.7,2.2,1c0.2,0.1,0.3,0.1,0.5,0.2c0,0,0.1,0,0.1,0.1c0.2,0.1,0.5,0.2,0.8,0.3c0.8,0.3,1.6,0.6,2.4,0.9
		c0.4,0.1,0.8,0.3,1.2,0.4c0.7,0.2,1.4,0.5,2.1,0.7c0.2,0,0.3,0.1,0.5,0.2c0.4,0.1,0.8,0.2,1.2,0.3c0.5,0.1,0.9,0.3,1.4,0.4
		c0.6,0.2,1.2,0.3,1.8,0.4c0.5,0.1,0.9,0.2,1.4,0.3c0.1,0,0.2,0.1,0.4,0.1c0.6,0.1,1.3,0.3,1.9,0.4c0.3,0.1,0.5,0.1,0.8,0.2
		c1,0.2,2,0.4,3.1,0.5c0,0,0.1,0,0.1,0c0.2,0,0.4,0.1,0.6,0.1c0.8,0.1,1.7,0.2,2.5,0.3c0.4,0,0.7,0.1,1.1,0.1c0.5,0,0.9,0.1,1.4,0.1
		c0.2,0,0.5,0,0.7,0c0.4,0,0.8,0.1,1.3,0.1c0.7,0,1.3,0.1,2,0.1c0.4,0,0.8,0,1.3,0c0.2,0,0.5,0,0.7,0c0.4,0,0.8,0,1.2,0
		c0.5,0,0.9,0,1.4,0c0.7,0,1.3,0,2,0c0.4,0,0.9,0,1.3,0c0.1,0,0.2,0,0.4,0c0.6,0,1.2-0.1,1.8-0.1c0.4,0,0.7,0,1.1-0.1
		c1.1-0.1,2.2-0.2,3.2-0.3c0.3,0,0.7-0.1,1-0.1c0.8-0.1,1.6-0.2,2.5-0.4c0.1,0,0.1,0,0.2,0c1-0.2,1.9-0.3,2.9-0.5
		c0.3-0.1,0.5-0.1,0.8-0.2c0.9-0.2,1.8-0.4,2.7-0.6c0.1,0,0.2-0.1,0.4-0.1c0,0,0.1,0,0.1,0c0.2,0,0.3-0.1,0.5-0.1
		c1-0.3,2.1-0.6,3.1-0.9c0.4-0.1,0.8-0.3,1.2-0.4c0.8-0.3,1.6-0.6,2.4-0.9c0.4-0.2,0.8-0.3,1.2-0.5c0.8-0.3,1.6-0.7,2.4-1
		c0.4-0.2,0.7-0.3,1.1-0.5c1.1-0.5,2.2-1.1,3.2-1.7l300.6-170.7c0.6-0.3,1.2-0.7,1.8-1.1c0.2-0.1,0.4-0.2,0.6-0.4
		c0.3-0.2,0.6-0.4,0.9-0.6c0.1-0.1,0.2-0.1,0.3-0.2c0.3-0.2,0.5-0.4,0.7-0.5c0.3-0.2,0.6-0.4,0.9-0.7c0.2-0.2,0.5-0.4,0.7-0.6
		c0.3-0.2,0.6-0.5,0.8-0.7c0.2-0.2,0.4-0.4,0.7-0.6c0.3-0.2,0.5-0.5,0.8-0.7c0.2-0.2,0.4-0.4,0.6-0.6c0.1-0.1,0.2-0.2,0.3-0.3
		c0.1-0.1,0.2-0.2,0.2-0.3c0.4-0.5,0.8-0.9,1.2-1.4c0.1-0.1,0.2-0.2,0.3-0.3c0.5-0.6,0.9-1.1,1.3-1.7c0,0,0.1-0.1,0.1-0.1
		c0.1-0.1,0.2-0.3,0.2-0.4c0.2-0.4,0.5-0.7,0.7-1.1c0.1-0.2,0.2-0.4,0.3-0.6c0.2-0.4,0.4-0.7,0.6-1.1c0.1-0.1,0.1-0.2,0.2-0.4
		c0-0.1,0.1-0.2,0.1-0.2c0.2-0.3,0.3-0.7,0.4-1c0.1-0.2,0.2-0.4,0.2-0.6c0.1-0.4,0.3-0.8,0.4-1.2c0-0.1,0.1-0.2,0.1-0.4
		c0,0,0,0,0-0.1c0.1-0.5,0.3-1.1,0.4-1.6c0-0.1,0-0.2,0.1-0.3c0.1-0.4,0.1-0.9,0.2-1.3c0,0,0-0.1,0-0.1c0-0.4,0.1-0.8,0.1-1.3
		l1-28.2C637.6,380.9,637.6,381.3,637.5,381.8z"/>
	<g>
		<path class="st2" d="M295.2,581.3c-17.9,2.2-37.6-1.2-51.5-9.9L25.8,434.5c-21.2-13.3-20.9-33.9,0.5-46.1l300.6-170.7
			c7.4-4.2,16.3-6.8,25.7-7.9c17.9-2.2,37.6,1.2,51.5,9.9l217.9,136.8c21.1,13.3,20.9,33.9-0.5,46.1L320.8,573.3
			C313.5,577.5,304.6,580.1,295.2,581.3z"/>
	</g>
	<linearGradient id="SVGID_2_" gradientUnits="userSpaceOnUse" x1="292.8637" y1="549.8277" x2="322.9309" y2="534.0791">
		<stop  offset="0" style="stop-color:#FFB7B3"/>
		<stop  offset="1" style="stop-color:#EB5648"/>
	</linearGradient>
	<polygon class="st3" points="313,537.3 283.5,547.7 295.5,555.5 317.4,539.9 	"/>
	<linearGradient id="SVGID_3_" gradientUnits="userSpaceOnUse" x1="369.6391" y1="509.7218" x2="378.9327" y2="506.6482">
		<stop  offset="0" style="stop-color:#FFB7B3"/>
		<stop  offset="1" style="stop-color:#EB5648"/>
	</linearGradient>
	<polygon class="st4" points="375.2,505.9 367.3,508.5 372.1,510.9 377.1,507 	"/>
	<g class="st5">
		<linearGradient id="SVGID_4_" gradientUnits="userSpaceOnUse" x1="227.2849" y1="469.8493" x2="262.0237" y2="409.68">
			<stop  offset="0" style="stop-color:#FFDCDC"/>
			<stop  offset="1" style="stop-color:#EB5648"/>
		</linearGradient>
		<polygon class="st6" points="342.2,467.4 280.2,500.4 146.5,413.2 207.3,378.1 		"/>
	</g>
	<linearGradient id="SVGID_5_" gradientUnits="userSpaceOnUse" x1="178.1981" y1="415.3402" x2="308.1701" y2="415.3402">
		<stop  offset="0" style="stop-color:#FFB7B3"/>
		<stop  offset="1" style="stop-color:#EB5648"/>
	</linearGradient>
	<path class="st7" d="M185,371.1c-4.5-2.6-6.7-6-6.7-9.3l-0.1,26.7c0,3.4,2.2,6.8,6.7,9.3l123.2,71.1l0.1-26.7L185,371.1z"/>
	<linearGradient id="SVGID_6_" gradientUnits="userSpaceOnUse" x1="178.2738" y1="343.896" x2="530.8248" y2="343.896">
		<stop  offset="0" style="stop-color:#FFB7B3"/>
		<stop  offset="1" style="stop-color:#EB5648"/>
	</linearGradient>
	<path class="st8" d="M524.1,316.7c8.9,5.1,8.9,13.4,0.1,18.6l-184,107c-8.8,5.1-23.2,5.1-32,0L185,371.1
		c-8.9-5.1-8.9-13.4-0.1-18.6l184-107c8.8-5.1,23.2-5.1,32,0L524.1,316.7z"/>
	<path class="st9" d="M355.6,409.6c-3.8,0-6.7-0.9-8.2-1.7L231.7,341l143.9-83.5c1.4-0.8,4.3-1.7,8.1-1.7c3.8,0,6.7,0.9,8.2,1.7
		l115.8,66.8l-143.8,83.5C362.3,408.7,359.4,409.6,355.6,409.6z"/>
	<linearGradient id="SVGID_7_" gradientUnits="userSpaceOnUse" x1="532.339" y1="342.4727" x2="332.5861" y2="450.9971">
		<stop  offset="0" style="stop-color:#FFB7B3"/>
		<stop  offset="1" style="stop-color:#EB5648"/>
	</linearGradient>
	<path class="st10" d="M530.8,326.5c0,0.1,0,0.2,0,0.3c0,0.1,0,0.2,0,0.3c0,0.1,0,0.2-0.1,0.3c0,0.1,0,0.2-0.1,0.3
		c0,0.1-0.1,0.2-0.1,0.3c0,0.1-0.1,0.2-0.1,0.3c0,0.1-0.1,0.2-0.1,0.3c0,0.1-0.1,0.2-0.1,0.3c0,0.1-0.1,0.2-0.1,0.3
		c0,0.1-0.1,0.2-0.1,0.3c-0.1,0.1-0.1,0.2-0.2,0.3c0,0.1-0.1,0.2-0.2,0.3c-0.1,0.1-0.2,0.3-0.2,0.4c-0.1,0.1-0.1,0.2-0.2,0.2
		c-0.1,0.1-0.2,0.3-0.3,0.4c0,0.1-0.1,0.1-0.1,0.2c-0.2,0.2-0.4,0.5-0.6,0.7c-0.1,0.1-0.1,0.1-0.2,0.2c-0.2,0.2-0.3,0.3-0.5,0.5
		c-0.1,0.1-0.2,0.2-0.2,0.2c-0.1,0.1-0.2,0.2-0.3,0.3c-0.1,0.1-0.2,0.2-0.3,0.3c-0.1,0.1-0.2,0.2-0.4,0.3c-0.1,0.1-0.2,0.2-0.3,0.3
		c-0.1,0.1-0.3,0.2-0.4,0.3c-0.1,0.1-0.2,0.2-0.4,0.2c-0.1,0.1-0.3,0.2-0.4,0.3c-0.2,0.1-0.3,0.2-0.5,0.3l-184,107
		c-0.5,0.3-1,0.5-1.5,0.8c-0.1,0.1-0.3,0.1-0.4,0.2c-0.5,0.2-1,0.4-1.4,0.6c-0.1,0-0.1,0.1-0.2,0.1c-0.5,0.2-1.1,0.4-1.6,0.6
		c-0.4,0.1-0.8,0.2-1.2,0.3c-0.3,0.1-0.6,0.2-0.9,0.2c-0.4,0.1-0.8,0.2-1.3,0.3c-0.3,0.1-0.6,0.1-0.9,0.2c-0.1,0-0.3,0-0.4,0.1
		c-0.5,0.1-1,0.2-1.6,0.2c-0.2,0-0.3,0-0.5,0.1c-0.6,0.1-1.2,0.1-1.8,0.2c-0.1,0-0.2,0-0.3,0c-0.4,0-0.8,0-1.2,0c-0.4,0-0.8,0-1.2,0
		c-0.3,0-0.7,0-1,0c-0.4,0-0.8,0-1.1-0.1c-0.3,0-0.7-0.1-1-0.1c-0.4,0-0.8-0.1-1.1-0.1c-0.3,0-0.7-0.1-1-0.1
		c-0.4-0.1-0.8-0.1-1.2-0.2c-0.4-0.1-0.8-0.2-1.2-0.3c-0.1,0-0.2,0-0.3-0.1c-0.6-0.1-1.1-0.3-1.7-0.5c-0.2,0-0.3-0.1-0.5-0.1
		c-0.5-0.1-0.9-0.3-1.4-0.5c-0.1,0-0.3-0.1-0.4-0.1c-0.4-0.2-0.8-0.3-1.2-0.5c-0.2-0.1-0.4-0.2-0.6-0.3c-0.6-0.3-1.1-0.6-1.7-0.9
		l-0.1,26.7c0.5,0.3,1.1,0.6,1.7,0.9c0.2,0.1,0.4,0.2,0.6,0.3c0.3,0.2,0.7,0.3,1,0.4c0.1,0,0.1,0,0.2,0.1c0.1,0.1,0.3,0.1,0.4,0.1
		c0.5,0.2,0.9,0.3,1.4,0.5c0.2,0,0.3,0.1,0.5,0.1c0.1,0,0.2,0.1,0.3,0.1c0.5,0.1,0.9,0.2,1.4,0.4c0.1,0,0.2,0,0.3,0.1
		c0.2,0.1,0.5,0.1,0.7,0.2c0.2,0,0.4,0.1,0.6,0.1c0.4,0.1,0.8,0.1,1.2,0.2c0.2,0,0.3,0.1,0.5,0.1c0.2,0,0.4,0,0.5,0.1
		c0.4,0,0.8,0.1,1.1,0.1c0.2,0,0.4,0,0.5,0.1c0.2,0,0.3,0,0.5,0c0.4,0,0.8,0,1.1,0.1c0.2,0,0.4,0,0.6,0c0.2,0,0.3,0,0.5,0
		c0.4,0,0.8,0,1.2,0c0.2,0,0.4,0,0.6,0c0.2,0,0.4,0,0.6,0c0.1,0,0.2,0,0.3,0c0.5,0,1-0.1,1.5-0.1c0.1,0,0.2,0,0.3,0
		c0.2,0,0.3,0,0.5-0.1c0.5-0.1,1.1-0.1,1.6-0.2c0.1,0,0.3,0,0.4-0.1c0.1,0,0.1,0,0.2,0c0.2,0,0.5-0.1,0.7-0.2
		c0.4-0.1,0.8-0.2,1.3-0.3c0.3-0.1,0.6-0.2,0.9-0.2c0.4-0.1,0.8-0.2,1.2-0.3c0.1,0,0.2,0,0.2-0.1c0.5-0.2,0.9-0.3,1.4-0.5
		c0.1,0,0.1-0.1,0.2-0.1c0.5-0.2,1-0.4,1.4-0.6c0.1-0.1,0.3-0.1,0.4-0.2c0.5-0.3,1-0.5,1.5-0.8l184-107c0.1-0.1,0.2-0.1,0.3-0.2
		c0.1-0.1,0.2-0.1,0.2-0.2c0.1-0.1,0.3-0.2,0.4-0.3c0.1-0.1,0.2-0.2,0.4-0.2c0.1-0.1,0.3-0.2,0.4-0.3c0.1-0.1,0.2-0.2,0.3-0.3
		c0.1-0.1,0.2-0.2,0.4-0.3c0.1-0.1,0.2-0.2,0.3-0.3c0.1-0.1,0.2-0.2,0.3-0.3c0,0,0.1-0.1,0.1-0.1c0,0,0.1-0.1,0.1-0.1
		c0.2-0.2,0.3-0.3,0.5-0.5c0.1-0.1,0.1-0.1,0.2-0.2c0.2-0.2,0.4-0.5,0.6-0.7c0,0,0,0,0,0c0-0.1,0.1-0.1,0.1-0.2
		c0.1-0.1,0.2-0.3,0.3-0.4c0.1-0.1,0.1-0.2,0.2-0.2c0.1-0.1,0.2-0.3,0.2-0.4c0,0,0-0.1,0.1-0.1c0-0.1,0.1-0.1,0.1-0.2
		c0.1-0.1,0.1-0.2,0.2-0.3c0-0.1,0.1-0.2,0.1-0.3c0.1-0.1,0.1-0.2,0.1-0.3c0-0.1,0-0.1,0.1-0.2c0,0,0-0.1,0-0.1
		c0-0.1,0.1-0.2,0.1-0.3c0-0.1,0.1-0.2,0.1-0.3c0-0.1,0.1-0.2,0.1-0.3c0-0.1,0-0.1,0-0.2c0,0,0-0.1,0-0.1c0-0.1,0-0.2,0.1-0.3
		c0-0.1,0-0.2,0-0.3c0-0.1,0-0.2,0-0.3c0-0.1,0-0.1,0-0.2c0-0.1,0-0.1,0-0.2l0.1-26.7C530.8,326.2,530.8,326.3,530.8,326.5z"/>
	<g>
		<path class="st11" d="M279.2,379c8,4.6,8,12.1,0.1,16.7s-20.9,4.6-28.9,0c-8-4.6-8-12.1-0.1-16.7
			C258.3,374.4,271.2,374.4,279.2,379z"/>
	</g>
	<g>
		<path class="st9" d="M264.5,379.5l14,8.1l-13.9,8.1l-14-8.1L264.5,379.5z M264.6,393.2l9.8-5.7l-9.8-5.7l-9.8,5.7L264.6,393.2"/>
	</g>
	<g>
		<linearGradient id="SVGID_8_" gradientUnits="userSpaceOnUse" x1="294.8168" y1="317.842" x2="294.8168" y2="336.5898">
			<stop  offset="0" style="stop-color:#FFB7B3"/>
			<stop  offset="1" style="stop-color:#EB5648"/>
		</linearGradient>
		<path class="st12" d="M306.2,320.6c-6.3-3.7-16.6-3.7-22.9,0c-6.3,3.7-6.3,9.6,0.1,13.3s16.6,3.7,22.9,0
			C312.6,330.2,312.6,324.2,306.2,320.6z"/>
		<linearGradient id="SVGID_9_" gradientUnits="userSpaceOnUse" x1="344.4485" y1="330.7708" x2="344.4485" y2="384.8776">
			<stop  offset="0" style="stop-color:#FFB7B3"/>
			<stop  offset="1" style="stop-color:#EB5648"/>
		</linearGradient>
		<polygon class="st13" points="297.6,343.5 367.9,384.9 391.3,371.4 321,330.8 		"/>
		<linearGradient id="SVGID_10_" gradientUnits="userSpaceOnUse" x1="409.3401" y1="266.3656" x2="409.3401" y2="320.4724">
			<stop  offset="0" style="stop-color:#FFB7B3"/>
			<stop  offset="1" style="stop-color:#EB5648"/>
		</linearGradient>
		<polygon class="st14" points="385.9,266.4 362.5,279.1 432.8,320.5 456.2,306.9 		"/>
		<linearGradient id="SVGID_11_" gradientUnits="userSpaceOnUse" x1="385.3315" y1="284.3084" x2="385.3315" y2="331.1624">
			<stop  offset="0" style="stop-color:#FFB7B3"/>
			<stop  offset="1" style="stop-color:#EB5648"/>
		</linearGradient>
		<polygon class="st15" points="345.5,289.8 415.8,331.2 425.1,324.9 354.8,284.3 		"/>
		<linearGradient id="SVGID_12_" gradientUnits="userSpaceOnUse" x1="367.6553" y1="294.4483" x2="367.6553" y2="341.3022">
			<stop  offset="0" style="stop-color:#FFB7B3"/>
			<stop  offset="1" style="stop-color:#EB5648"/>
		</linearGradient>
		<polygon class="st16" points="327.9,299.9 398.2,341.3 407.4,335 337.2,294.4 		"/>
	</g>
	<g>
		<linearGradient id="SVGID_13_" gradientUnits="userSpaceOnUse" x1="168.5136" y1="57.4855" x2="220.2477" y2="81.8641">
			<stop  offset="0" style="stop-color:#EEC286"/>
			<stop  offset="1" style="stop-color:#F2CF9B"/>
		</linearGradient>
		<path class="st17" d="M203.6,109.6c0,0-19.6,1.3-30.5-11.5c-10.9-12.8-5.6-31.7-1.2-35.9c4.3-4.2,16-17.3,35.2-18.1
			c19.2-0.8,29.5-1.2,48.6,22l-47.5,43.2L203.6,109.6z"/>
		<linearGradient id="SVGID_14_" gradientUnits="userSpaceOnUse" x1="236.3754" y1="69.7381" x2="231.0911" y2="104.6679">
			<stop  offset="0" style="stop-color:#F5E1B7"/>
			<stop  offset="1" style="stop-color:#F1D1A0"/>
		</linearGradient>
		<path class="st18" d="M205.2,79c0,0,13.5,4.4,11.2,15.2c-2.3,10.8-12.8,15.4-12.8,15.4s30.4-0.4,58.4-15c0,0,5.5-13.9-6.3-28.6
			L205.2,79z"/>
		<linearGradient id="SVGID_15_" gradientUnits="userSpaceOnUse" x1="346.1241" y1="198.9016" x2="307.2936" y2="18.5156">
			<stop  offset="0" style="stop-color:#F2D2A3"/>
			<stop  offset="0.2961" style="stop-color:#F8E9C9"/>
			<stop  offset="0.653" style="stop-color:#FAEED6"/>
			<stop  offset="0.9563" style="stop-color:#EFCF9D"/>
		</linearGradient>
		<path class="st19" d="M306.8,216.7c0,0-19.9,2-39.2-14.3s-19.4-47.5-18.4-55.4c1-7.8,7-42.5,10.8-48.2c3.8-5.7,5-20.2-5-33.9
			c-10.1-13.7-25.1-20.5-34.6-21.1c-9.5-0.5-25.5,1-32.5,5.5c0,0,26.6-14.5,66.3-23.8S348.8,9.3,363.3,9s35.5-2.2,58,13.7
			c22.5,15.9,20.4,40.5,20.4,44c0,3.6-7.8,41.2-14.8,50.6s-92.3,76.1-92.3,76.1S325.7,209.6,306.8,216.7z"/>
		<linearGradient id="SVGID_16_" gradientUnits="userSpaceOnUse" x1="305.0109" y1="175.3572" x2="367.675" y2="175.3572">
			<stop  offset="0" style="stop-color:#EDBD82"/>
			<stop  offset="1" style="stop-color:#F1CC97"/>
		</linearGradient>
		<path class="st20" d="M335.5,133.8c0,0-9.9,4.3-14.3,12s-4.9,17.1-0.7,21.6c4.1,4.5,9.2,7.1,10.7,8.5c1.5,1.4,4.4,3.3,5.3,9.6
			s-4.2,11.8-5.3,13.7c-1.1,1.9-15.7,15-26,17.8c0,0,17.2-0.5,31.4-9.8s27.5-18.6,29.6-23.5S374.5,140.3,335.5,133.8z"/>
		<linearGradient id="SVGID_17_" gradientUnits="userSpaceOnUse" x1="423.6876" y1="342.1524" x2="392.3988" y2="96.5194">
			<stop  offset="0" style="stop-color:#F2D2A3"/>
			<stop  offset="0.1616" style="stop-color:#F8E9C9"/>
			<stop  offset="0.4981" style="stop-color:#F5DCB1"/>
			<stop  offset="0.7537" style="stop-color:#FAEED6"/>
			<stop  offset="0.9563" style="stop-color:#EFCF9D"/>
		</linearGradient>
		<path class="st21" d="M323.6,358.5c0,0-3.2-14.3,5.9-27.1c9.1-12.8,26.8-20.4,38.7-21.9c11.8-1.5,35.9-2.2,38.7-18.6
			c2.8-16.4-17.6-21.2-22.2-23c-4.6-1.8-34-12.8-38.1-31.4c-4.1-18.6,5.6-35.7,17-50c11.4-14.2-6.8-51.1-30.2-51.5
			c0,0,53.4-22.2,93.6-21.8s63.4,15.4,63.4,15.4s12.3,17.5,12.3,32.4s-6.7,32.8-15.8,40.1c-9.1,7.3-24.2,20.1-17.7,37.6
			s13.4,27,18.1,33.9c4.7,6.9,10.3,17.1,8.3,29.2c-2,12-11.8,23-21.3,27.7c-9.5,4.7-32.5,10.7-43.7,11.6c-11.1,0.8-31.3,1.7-46-2.1
			c-14.7-3.8-38.9,1-46.9,27.8L323.6,358.5z"/>
		<linearGradient id="SVGID_18_" gradientUnits="userSpaceOnUse" x1="366.3778" y1="215.6033" x2="429.4528" y2="215.6033">
			<stop  offset="0" style="stop-color:#E9A97A"/>
			<stop  offset="1" style="stop-color:#F8E9C9"/>
		</linearGradient>
		<path class="st22" d="M378,192.6c0,0-28.7,41.9,4.3,57.4l45.4-7.4c0,0-14.5-33.8,1.8-61.6L378,192.6z"/>
		<linearGradient id="SVGID_19_" gradientUnits="userSpaceOnUse" x1="382.2431" y1="256.3817" x2="435.6656" y2="256.3817">
			<stop  offset="0" style="stop-color:#E9A97A"/>
			<stop  offset="1" style="stop-color:#F8E9C9"/>
		</linearGradient>
		<polygon class="st23" points="382.2,255 394.9,264.3 435.7,258.3 427.7,248.4 		"/>
		<linearGradient id="SVGID_20_" gradientUnits="userSpaceOnUse" x1="434.3153" y1="250.2715" x2="472.5863" y2="250.2715">
			<stop  offset="0" style="stop-color:#E9A97A"/>
			<stop  offset="1" style="stop-color:#F8E9C9"/>
		</linearGradient>
		<polygon class="st24" points="434.3,246.8 443.4,256.6 472.6,254.1 466.8,243.9 		"/>
		<linearGradient id="SVGID_21_" gradientUnits="userSpaceOnUse" x1="434.4625" y1="181.4988" x2="486.256" y2="181.4988">
			<stop  offset="0" style="stop-color:#E9A97A"/>
			<stop  offset="1" style="stop-color:#F8E9C9"/>
		</linearGradient>
		<polygon class="st25" points="437.1,180.5 434.5,192.5 482.6,183.6 486.3,170.5 		"/>
		<linearGradient id="SVGID_22_" gradientUnits="userSpaceOnUse" x1="431.2451" y1="202.1501" x2="480.0918" y2="202.1501">
			<stop  offset="0" style="stop-color:#E9A97A"/>
			<stop  offset="1" style="stop-color:#F8E9C9"/>
		</linearGradient>
		<polygon class="st26" points="432.8,202.5 480.1,193.8 475.4,203.3 431.2,210.5 		"/>
		<linearGradient id="SVGID_23_" gradientUnits="userSpaceOnUse" x1="430.8877" y1="221.9692" x2="465.4539" y2="221.9692">
			<stop  offset="0" style="stop-color:#E9A97A"/>
			<stop  offset="1" style="stop-color:#F8E9C9"/>
		</linearGradient>
		<polygon class="st27" points="432.4,220.9 465.5,215.1 460.8,224.6 430.9,228.8 		"/>
		<g>
			<g>
				<linearGradient id="SVGID_24_" gradientUnits="userSpaceOnUse" x1="285.3191" y1="124.5403" x2="339.1802" y2="124.5403">
					<stop  offset="0" style="stop-color:#FFB06A"/>
					<stop  offset="1" style="stop-color:#F8E9C9"/>
				</linearGradient>
				<path class="st28" d="M326.2,108.3c6.5-1.3,12.2,3,12.7,9.6l0.2,2.8c0.5,6.6-4.4,13-11,14.2l-29.9,5.8c-6.5,1.3-12.2-3-12.7-9.6
					l-0.2-2.8c-0.5-6.6,4.4-13,11-14.2L326.2,108.3z"/>
			</g>
			<g>
				<linearGradient id="SVGID_25_" gradientUnits="userSpaceOnUse" x1="292.2827" y1="93.38" x2="327.7426" y2="93.38">
					<stop  offset="0" style="stop-color:#FFB06A"/>
					<stop  offset="1" style="stop-color:#F8E9C9"/>
				</linearGradient>
				<path class="st29" d="M308.7,75.6c9.8-1.9,18.3,4.5,19,14.4s-6.6,19.4-16.4,21.3c-9.8,1.9-18.3-4.5-19-14.4S299,77.5,308.7,75.6
					z"/>
			</g>
		</g>
		<linearGradient id="SVGID_26_" gradientUnits="userSpaceOnUse" x1="359.8615" y1="66.7213" x2="428.9732" y2="66.7213">
			<stop  offset="0" style="stop-color:#F2D2A3"/>
			<stop  offset="1" style="stop-color:#F8E9C9"/>
		</linearGradient>
		<polygon class="st30" points="361,70.6 429,54.1 429,65.1 359.9,79.3 		"/>
		<linearGradient id="SVGID_27_" gradientUnits="userSpaceOnUse" x1="359.7955" y1="86.1077" x2="428.9072" y2="86.1077">
			<stop  offset="0" style="stop-color:#F2D2A3"/>
			<stop  offset="1" style="stop-color:#F8E9C9"/>
		</linearGradient>
		<polygon class="st31" points="361,89.9 428.9,73.5 428.9,84.5 359.8,98.7 		"/>
		<linearGradient id="SVGID_28_" gradientUnits="userSpaceOnUse" x1="350.846" y1="106.4648" x2="419.9577" y2="106.4648">
			<stop  offset="0" style="stop-color:#F2D2A3"/>
			<stop  offset="1" style="stop-color:#F8E9C9"/>
		</linearGradient>
		<polygon class="st32" points="352,110.3 420,93.9 420,104.8 350.8,119 		"/>
	</g>
	<g>
		<g>
			<polygon class="st33" points="377.1,493.9 375.2,494.9 373.3,493.9 375.2,492.8 			"/>
		</g>
		<g>
			<polygon class="st34" points="377.1,493.9 377.1,507 375.2,508.1 375.2,494.9 			"/>
		</g>
		<g>
			<polygon class="st35" points="375.2,494.9 375.2,508.1 373.3,507 373.3,493.9 			"/>
		</g>
		<g>
			<polygon class="st36" points="386.5,490.9 386.5,491 375.2,497.5 375.2,464.6 			"/>
		</g>
		<g>
			<polygon class="st37" points="375.2,464.6 375.2,497.5 363.8,491 363.8,490.9 			"/>
		</g>
	</g>
	<g>
		<polygon class="st33" points="317.5,509.1 313.1,511.7 308.7,509.1 313.1,506.6 		"/>
	</g>
	<g>
		<polygon class="st34" points="317.5,509.1 317.5,540 313.1,542.6 313.1,511.7 		"/>
	</g>
	<g>
		<polygon class="st35" points="313.1,511.7 313.1,542.6 308.7,540 308.7,509.1 		"/>
	</g>
	<g>
		<polygon class="st36" points="339.8,502.1 339.8,502.3 313.2,517.8 313.2,440.3 		"/>
	</g>
	<g>
		<polygon class="st37" points="313.2,440.3 313.2,517.8 286.4,502.3 286.4,502.1 		"/>
	</g>
	<g>
		<path class="st38" d="M148.7,447.3c0,0-3.1,8,3.9,10c6.9,1.9,11.7,4.4,13-0.8s-10-9.4-10-9.4L148.7,447.3z"/>
		<path class="st38" d="M171,436c0,0-3.1,8,3.9,10c6.9,1.9,11.7,4.4,13-0.8s-10-9.4-10-9.4L171,436z"/>
		<linearGradient id="SVGID_29_" gradientUnits="userSpaceOnUse" x1="133.5386" y1="392.3503" x2="179.0712" y2="423.7356">
			<stop  offset="0" style="stop-color:#485E7F"/>
			<stop  offset="0.9988" style="stop-color:#4A6080"/>
		</linearGradient>
		<path class="st39" d="M157.5,449.9c0,0-6.2,5.2-9.1,0.7c-0.2-5.7-4.3-74.9-3.3-76.8s33.6,1.2,33.6,1.2s-0.2,8.3-0.2,10.7
			s-0.7,52.2-0.7,52.2s-3.6,4.1-6.7,1c-0.5-5.2-4.8-47.4-5.7-52.4c-1-1.2-2.9-0.7-3,0.6C162.2,388.3,158.7,445.4,157.5,449.9z"/>
		<path class="st40" d="M178.1,341c0,0,6.1,10.1,10.3,8.8c4.2-1.3,18-8.5,18.8-9c0.8-0.4,2.9-1.5,3.9-2.7c1.1-1.2,1.5-1.8,1-3.1
			c-0.5-1.3-0.9-1.4-0.9-1.4s-1.8,1.7-2.6,2c-1.5,0-1.1-2.8-1.8-2.3s-0.4,2-1.4,3.2c-3,3.5-15.9,6.1-16.5,6.2
			c-0.7,0.1-4.1-4.4-5.4-7.7c-0.6-1.6-3.2-7.2-3.2-7.2L178.1,341z"/>
		<linearGradient id="SVGID_30_" gradientUnits="userSpaceOnUse" x1="169.5195" y1="326.7041" x2="183.3273" y2="336.2217">
			<stop  offset="0" style="stop-color:#5898F6"/>
			<stop  offset="1" style="stop-color:#266EF7"/>
		</linearGradient>
		<polygon class="st41" points="174.5,319 185.7,336.5 178.4,344 175.9,342.3 		"/>
		<path class="st40" d="M156.3,313.7c0,0,0.8,1-2.7-4.6c-3.6-5.6,0.7-11.8,1.4-12.8c0.7-1,12.9-1.9,12.9-1.9l3.2,2.3
			c0,0,1.8,3.7,0.7,9.1c-1.1,5.4-3.5,5.2-4.4,5.7c-1,0.5-2,2.9-2,5s3.7,3.8,3.7,3.8s-15,6.3-14,0.3
			C155.8,316.3,156.3,313.7,156.3,313.7z"/>
		<path class="st42" d="M154.2,309.6c0,0-5.4-0.8-6.4-7.2s2.6-8.9,3-9.3c0.4-0.4,4.6-3.6,5.2-4.5c0.6-1,8.3-0.6,10.8,1.1
			s5,2.5,5.4,6.8c0.4,4.3-2.7,2.5-4.1,3.8c-1.3,1.3-6.8,1.1-8.2,0.4c-1.4-0.7-3,0.5-3.2,2.3c-0.2,1.8-0.8,1-2.5,1.3
			C152.5,304.6,154.2,309.6,154.2,309.6z"/>
		<linearGradient id="SVGID_31_" gradientUnits="userSpaceOnUse" x1="137.4629" y1="332.662" x2="180.1302" y2="362.0724">
			<stop  offset="0" style="stop-color:#5898F6"/>
			<stop  offset="1" style="stop-color:#266EF7"/>
		</linearGradient>
		<path class="st43" d="M141.4,325.4c0,0,11.9-8.6,13.8-7.9c1.9,0.7,2.1,2.5,6,2.4c3.1-0.1,2.5-1.2,4.7-2.7c0,0,7.8-0.3,7.7,0.1
			c-0.2,0.8,2.1-0.2,2.9,9.8c0.7,10,3.8,47.7,2.6,48.2c-1.2,0.5-19.8,11.9-31.7,4.5c-3.1-2.9-2.9-4.5-2.9-4.5L141.4,325.4z"/>
		<path class="st40" d="M138,338.3c0,0-0.9,4.7-0.3,12.4c0.7,10,3,23.7,3.1,25.7c-0.6,3.2-2.4,8.7,1,8.4c3.3-0.3,4.8-1,4.4-2.1
			c-0.3-1.1-1-3.3-1.1-5.4c-0.2-2.1-0.5-28-0.5-29.4c0-0.8,0-5.9-0.3-9C144.1,336,141.4,336.2,138,338.3z"/>
		<linearGradient id="SVGID_32_" gradientUnits="userSpaceOnUse" x1="136.8387" y1="330.913" x2="146.521" y2="337.5869">
			<stop  offset="0" style="stop-color:#5898F6"/>
			<stop  offset="1" style="stop-color:#266EF7"/>
		</linearGradient>
		<path class="st44" d="M135.6,339.8l10.5,1c0,0,1.9-10.5-2.5-14.9C138.8,323.6,137.9,329.7,135.6,339.8z"/>
	</g>
	<path class="st45" d="M202.3,367.9l1.5,35.4c0,0,1.8,7.1,3.7,1.1c1.9-6,1.2-36.3,1.2-36.3L202.3,367.9z"/>
	<path class="st46" d="M259,490.4c0,0-5.5-0.5-9.7,1.7c-4.1,2.1-6.6,2.9-7.8,4.3s-0.2,5.2,2.3,4.6c2.5-0.6,6.4-1.1,9.5-2.9
		S261.8,492.2,259,490.4z"/>
	<path class="st46" d="M222.8,471.7c0,0-5.5-0.5-9.7,1.7s-6.6,2.9-7.8,4.3s-0.2,5.2,2.3,4.6s6.4-1.1,9.5-2.9
		S225.5,473.5,222.8,471.7z"/>
	<path class="st47" d="M205.1,480.5c0,0,5.2,3.1,5.7-2s7.5-37.3,8.1-40.6c0.6-3.3,1.9-9.8,1.4-14.6c-0.6-4.8-12.8-16.8-12.8-16.8
		s-0.7,23.2-1,34.1S204.8,468.5,205.1,480.5z"/>
	<linearGradient id="SVGID_33_" gradientUnits="userSpaceOnUse" x1="207.1875" y1="449.0737" x2="248.1775" y2="449.0737">
		<stop  offset="0" style="stop-color:#485E7F"/>
		<stop  offset="0.9988" style="stop-color:#4A6080"/>
	</linearGradient>
	<path class="st48" d="M241.1,499.2c0,0-2.9-23.6-4.2-47.3c-0.5-5.1-6.2-19.1-14.5-27.3c-1.4-1.6-9.5,0.1-15-15.4
		c-0.5-3.8,0-10.3,0-10.3l34,7c0,0,5.4,7.9,6.3,23.2c0.9,15.3,0.2,34.2,0,37.1s-0.8,21.3-0.9,23.6c-0.2,2.3,0.3,4.7,0.2,5.9
		C247,496.9,245.7,499.5,241.1,499.2z"/>
	<path class="st49" d="M220.5,342.2c0,0,0.4,3.9-0.8,4.5c-1.3,0.7,8.8-0.9,8.8-0.9l2.8-5.5L220.5,342.2z"/>
	<path class="st45" d="M221.9,341.9c0,0,7.4,1.7,10.2-1.5s3.5-5.5,3.3-7.7c-0.2-2.2-0.5-6.2-2-11.4s-12.4,5.9-12.4,5.9L221.9,341.9z
		"/>
	<linearGradient id="SVGID_34_" gradientUnits="userSpaceOnUse" x1="207.2595" y1="327.8819" x2="233.4435" y2="327.8819">
		<stop  offset="1.198948e-03" style="stop-color:#6D4E57"/>
		<stop  offset="0.9988" style="stop-color:#82636C"/>
	</linearGradient>
	<path class="st50" d="M233.1,318.2c0,0-5.4-5.4-9.5-4.9c-4.1,0.5-7.1,0-10,4c-3,4-4.4,3.3-5.3,5s-2.5,7.7,2.3,13.9s10.1,7.3,13,5.3
		c2.9-2,4.8-5.3,3.4-8.4s-3.6-7.5-1.2-8C228.2,324.6,235.1,321.5,233.1,318.2z"/>
	<path class="st45" d="M278.8,366.5c-0.8-1.4-3.2-1.4-5.5-0.1c-1.1,0.6-2,1.5-2.4,2.3c-0.2,0.1-0.3,0.2-0.5,0.3l-1.2,0.8
		c0,0-13.1,5.5-15.5,5.3c-2.4-0.2-1.7,0-3.2-4.5c-1.8-5.4-2.7-7.2-2.7-7.2l-7.4,5.1c0,0,5.4,12.3,6.4,13.6c0.5,0.7,0.5,6.2,24.9-9.5
		c0,0,0.4-0.2,0.9-0.4c1.1,0.1,2.3-0.2,3.6-0.9C278.4,370,279.6,367.9,278.8,366.5z"/>
	<linearGradient id="SVGID_35_" gradientUnits="userSpaceOnUse" x1="201.5391" y1="376.494" x2="249.8233" y2="376.494">
		<stop  offset="1.198948e-03" style="stop-color:#F8D258"/>
		<stop  offset="0.9988" style="stop-color:#FCF0B4"/>
	</linearGradient>
	<path class="st51" d="M201.5,368c0,0,2.8-23.3,15.4-23.7c2.9,0.7,8.9,2.5,13.3,1.1c4.4-0.4,10.3,3.4,12.6,7.3
		c2.3,3.8,7,11.3,7,11.3s-6.1,5.4-9.5,5.4c0.5,2.9,1.4,37.1,1.4,37.1s-20.4,4.8-36.1,0c0,0,0.7-35.1,1-36.5
		C206.9,368.7,203.9,369.7,201.5,368z"/>
	<g>
		<linearGradient id="SVGID_36_" gradientUnits="userSpaceOnUse" x1="73.9115" y1="322.6509" x2="75.8783" y2="264.9574">
			<stop  offset="0" style="stop-color:#FFFFFF"/>
			<stop  offset="1" style="stop-color:#679EE0"/>
		</linearGradient>
		<polygon class="st52" points="77.5,326.7 72.2,323.7 72.1,266.8 77.4,269.8 		"/>
	</g>
	<g>
		<linearGradient id="SVGID_37_" gradientUnits="userSpaceOnUse" x1="81.1454" y1="318.7054" x2="81.801" y2="234.7875">
			<stop  offset="0" style="stop-color:#FFFFFF"/>
			<stop  offset="1" style="stop-color:#9EC2F5"/>
		</linearGradient>
		<polygon class="st53" points="81.4,232.2 99.2,257.2 85.9,264.9 86.1,321.8 77.5,326.7 77.4,269.8 63.9,277.6 		"/>
	</g>
	<g>
		<linearGradient id="SVGID_38_" gradientUnits="userSpaceOnUse" x1="78.2106" y1="232.0428" x2="61.8204" y2="274.6573">
			<stop  offset="0" style="stop-color:#FFFFFF"/>
			<stop  offset="1" style="stop-color:#679EE0"/>
		</linearGradient>
		<polygon class="st54" points="63.9,277.6 58.6,274.6 76.2,229.1 81.4,232.2 		"/>
	</g>
	<g>
		<linearGradient id="SVGID_39_" gradientUnits="userSpaceOnUse" x1="144.0613" y1="255.7729" x2="145.3726" y2="203.3243">
			<stop  offset="0" style="stop-color:#FFB7B3"/>
			<stop  offset="1" style="stop-color:#EB5648"/>
		</linearGradient>
		<polygon class="st55" points="147.3,263.8 142,260.7 141.9,203.8 147.2,206.8 		"/>
	</g>
	<g>
		<linearGradient id="SVGID_40_" gradientUnits="userSpaceOnUse" x1="152.0863" y1="263.6968" x2="150.7751" y2="156.1771">
			<stop  offset="0" style="stop-color:#FFB7B3"/>
			<stop  offset="1" style="stop-color:#EB5648"/>
		</linearGradient>
		<polygon class="st56" points="151.3,169.2 169.1,194.2 155.7,201.9 155.9,258.8 147.3,263.8 147.2,206.8 133.7,214.6 		"/>
	</g>
	<g>
		<linearGradient id="SVGID_41_" gradientUnits="userSpaceOnUse" x1="146.3978" y1="172.6309" x2="133.2857" y2="208.0337">
			<stop  offset="0" style="stop-color:#FFB7B3"/>
			<stop  offset="1" style="stop-color:#EB5648"/>
		</linearGradient>
		<polygon class="st57" points="133.7,214.6 128.4,211.6 146,166.1 151.3,169.2 		"/>
	</g>
	<g class="st58">
		<g>
			<linearGradient id="SVGID_42_" gradientUnits="userSpaceOnUse" x1="219.1726" y1="257.0617" x2="219.5004" y2="223.9535">
				<stop  offset="0" style="stop-color:#FFFFFF"/>
				<stop  offset="1" style="stop-color:#FF94B0"/>
			</linearGradient>
			<polygon class="st59" points="220.8,258.4 217.9,256.8 217.9,226.2 220.7,227.8 			"/>
		</g>
		<g>
			<linearGradient id="SVGID_43_" gradientUnits="userSpaceOnUse" x1="222.9513" y1="254.7732" x2="222.9513" y2="208.225">
				<stop  offset="0" style="stop-color:#FFFFFF"/>
				<stop  offset="1" style="stop-color:#FF94B0"/>
			</linearGradient>
			<polygon class="st60" points="222.9,207.6 232.5,221 225.3,225.2 225.4,255.8 220.8,258.4 220.7,227.8 213.4,232 			"/>
		</g>
		<g>
			<linearGradient id="SVGID_44_" gradientUnits="userSpaceOnUse" x1="221.03" y1="208.3304" x2="212.1793" y2="230.2932">
				<stop  offset="0" style="stop-color:#FFFFFF"/>
				<stop  offset="1" style="stop-color:#FF789B"/>
			</linearGradient>
			<polygon class="st61" points="213.4,232 210.6,230.4 220.1,205.9 222.9,207.6 			"/>
		</g>
	</g>
	<g>
		<path class="st62" d="M162.7,337.3c-2.4,1.2-4.6,3.5-5.5,6.1c-0.2,0.6-0.4,1.3-0.5,1.9l1.1,0.7l-1.1,1.5c0.1,0.6,0.3,1.2,0.6,1.7
			c1,1.8,3,2.6,5.5,2.1v-5l-1.2-0.8c-0.4-0.3-0.4-1,0-1.5l1.2-1.6V337.3L162.7,337.3z M158.6,347.2l1.4-1.9l-1.4-0.9
			c0.3-1.4,1.1-2.7,2.2-3.8v8.8C159.8,349.1,159,348.3,158.6,347.2z"/>
		<path class="st62" d="M161.8,344.2l1.4-1.9c0.2-0.3,0.6-0.4,0.8-0.3l1.4,0.9c0.2,0.2,0.2,0.5,0,0.8l-1.4,1.9
			c-0.2,0.3-0.6,0.4-0.8,0.3l-1.4-0.9C161.6,344.9,161.6,344.5,161.8,344.2z"/>
		<path class="st62" d="M164.6,336.6c2.4-0.5,4.6,0.3,5.5,2.2c0.2,0.5,0.4,1,0.5,1.6l-1.1,1.5l1.1,0.7c-0.1,0.7-0.3,1.4-0.6,2.1
			c-1,2.5-3,4.8-5.5,6v-5l1.2-1.6c0.4-0.6,0.4-1.3,0-1.5l-1.2-0.8V336.6L164.6,336.6z M168.7,343.6l-1.4-0.9l1.4-1.9
			c-0.3-1.1-1.1-1.9-2.2-2.2v8.8C167.5,346.3,168.3,345,168.7,343.6z"/>
	</g>
</g>
</svg>
