<?xml version="1.0" encoding="utf-8"?>
<!-- Generator: Adobe Illustrator 21.0.0, SVG Export Plug-In . SVG Version: 6.00 Build 0)  -->
<svg version="1.1" id="图层_1" xmlns="http://www.w3.org/2000/svg" xmlns:xlink="http://www.w3.org/1999/xlink" x="0px" y="0px"
	 viewBox="0 0 912.9 901.9" style="enable-background:new 0 0 912.9 901.9;" xml:space="preserve">
<style type="text/css">
	.st0{fill:#FFA86E;}
</style>
<path class="st0" d="M149.3,872.4c-36,0-65.2-29.2-65.2-65.2V704.8c0-36,29.2-65.2,65.2-65.2c36,0,65.2,29.3,65.2,65.2v102.4
	C214.5,843.1,185.2,872.4,149.3,872.4z"/>
<path class="st0" d="M354.1,872.4c-36,0-65.2-29.2-65.2-65.2V653.6c0-36,29.2-65.2,65.2-65.2c36,0,65.2,29.2,65.2,65.2v153.6
	C419.3,843.1,390,872.4,354.1,872.4z"/>
<path class="st0" d="M763.7,872.4c-36,0-65.2-29.2-65.2-65.2V500c0-36,29.2-65.2,65.2-65.2s65.2,29.2,65.2,65.2v307.2
	C828.9,843.1,799.6,872.4,763.7,872.4z"/>
<path class="st0" d="M98.1,565.2c-36,0-65.2-29.2-65.2-65.2c0-35.8,29-65,64.8-65.2c220.7-11.7,427.5-113,572-279.2h-59.6
	c-36,0-65.2-29.2-65.2-65.2c0-36,29.2-65.2,65.2-65.2h204.8c36,0,65.2,29.2,65.2,65.2v204.8c0,36-29.2,65.2-65.2,65.2
	s-65.2-29.2-65.2-65.2v-32.5c-35.4,38.7-74,74.4-115.3,106.5c-50.6,39.4-105.4,73.6-163,101.8c-57.6,28.2-118.3,50.5-180.5,66.2
	c-62.8,15.9-127.5,25.3-192.2,27.9l-0.3,0H98.1z"/>
<path class="st0" d="M558.9,872.4c-36,0-65.2-29.2-65.2-65.2v-256c0-36,29.2-65.2,65.2-65.2s65.2,29.2,65.2,65.2v256
	C624.1,843.1,594.8,872.4,558.9,872.4z"/>
<path class="st0" d="M558.9,500"/>
</svg>
